<svg width="484" height="100" viewBox="0 0 484 100" fill="#fff" xmlns="http://www.w3.org/2000/svg">
<path d="M47.96 0.647996C48.44 0.647996 48.68 0.887996 48.68 1.368V5.39999C48.68 5.87999 48.44 6.11999 47.96 6.11999C39.32 6.312 31.832 8.136 25.496 11.592C19.256 15.048 14.408 19.944 10.952 26.28C7.592 32.52 5.912 39.768 5.912 48.024C5.912 50.424 6.056 52.92 6.344 55.512C7.208 63.096 9.704 69.768 13.832 75.528C18.056 81.192 23.528 85.608 30.248 88.776C36.968 91.944 44.552 93.528 53 93.528C53.768 93.528 54.152 93.768 54.152 94.248V98.28C54.152 98.76 53.816 99 53.144 99C43.736 99 35.24 97.224 27.656 93.672C20.168 90.12 14.072 85.128 9.368 78.696C4.664 72.168 1.832 64.632 0.872 56.088C0.584 53.304 0.44 50.664 0.44 48.168C0.44 38.856 2.36 30.648 6.2 23.544C10.136 16.44 15.656 10.92 22.76 6.98399C29.96 2.95199 38.36 0.839993 47.96 0.647996ZM87.6433 93.528C88.1233 93.528 88.3633 93.768 88.3633 94.248V98.28C88.3633 98.472 88.2673 98.664 88.0753 98.856C87.9793 98.952 87.8353 99 87.6433 99L82.8913 99.144L73.9633 99.288C70.3153 99.288 67.3393 99.24 65.0352 99.144L59.8513 99C60.6193 84.696 61.0033 66.6 61.0033 44.712C61.0033 26.856 60.7633 12.408 60.2832 1.368C60.2832 0.887996 60.5233 0.647996 61.0033 0.647996L65.0352 0.359991C65.5153 0.359991 65.7553 0.599994 65.7553 1.08C66.3313 14.328 66.6193 28.776 66.6193 44.424C66.6193 59.784 66.2833 76.2 65.6113 93.672L74.3953 93.816C77.8513 93.816 80.6833 93.768 82.8913 93.672L87.6433 93.528ZM114.976 98.28C114.976 98.76 114.736 99 114.256 99L102.448 98.856C99.9523 98.856 97.8883 98.904 96.2563 99C95.7763 99 95.5363 98.76 95.5363 98.28V94.248C95.5363 94.056 95.5843 93.912 95.6803 93.816C95.8723 93.624 96.0643 93.528 96.2563 93.528C97.7923 93.432 99.7603 93.384 102.16 93.384L102.592 74.808C102.688 72.792 102.784 70.344 102.88 67.464C102.976 64.488 103.024 61.08 103.024 57.24V49.752C103.024 43.8 102.928 34.68 102.736 22.392L102.592 5.832L99.2803 5.976C98.7043 5.976 98.4163 5.736 98.4163 5.256V1.224C98.4163 1.03199 98.4643 0.887993 98.5603 0.791994C98.7523 0.599997 98.9443 0.503998 99.1363 0.503998L103.6 0.359991C104.272 0.359991 105.088 0.407993 106.048 0.503998C107.104 0.503998 108.832 0.503998 111.232 0.503998C111.424 0.503998 111.568 0.599997 111.664 0.791994C111.856 0.887993 111.952 1.03199 111.952 1.224L112.096 5.256C112.096 5.736 111.808 5.976 111.232 5.976H108.064L108.208 22.104C108.4 34.392 108.496 43.608 108.496 49.752V57.24C108.496 61.176 108.448 64.632 108.352 67.608C108.256 70.488 108.16 72.936 108.064 74.952L107.632 93.528H114.112C114.304 93.528 114.448 93.624 114.544 93.816C114.736 93.912 114.832 94.056 114.832 94.248L114.976 98.28ZM166.788 0.647996C167.268 0.647996 167.508 0.887996 167.508 1.368V5.39999C167.508 5.87999 167.268 6.11999 166.788 6.11999C158.148 6.312 150.66 8.136 144.324 11.592C138.084 15.048 133.236 19.944 129.78 26.28C126.42 32.52 124.74 39.768 124.74 48.024C124.74 50.424 124.884 52.92 125.172 55.512C126.036 63.096 128.532 69.768 132.66 75.528C136.884 81.192 142.356 85.608 149.076 88.776C155.796 91.944 163.38 93.528 171.828 93.528C172.596 93.528 172.98 93.768 172.98 94.248V98.28C172.98 98.76 172.644 99 171.972 99C162.564 99 154.068 97.224 146.484 93.672C138.996 90.12 132.9 85.128 128.196 78.696C123.492 72.168 120.66 64.632 119.7 56.088C119.412 53.304 119.268 50.664 119.268 48.168C119.268 38.856 121.188 30.648 125.028 23.544C128.964 16.44 134.484 10.92 141.588 6.98399C148.788 2.95199 157.188 0.839993 166.788 0.647996ZM218.567 0.935992C218.759 0.935992 218.903 0.983994 218.999 1.08C219.191 1.176 219.239 1.32 219.143 1.51199C217.703 9.57599 213.911 18.792 207.767 29.16C201.623 39.432 194.135 49.224 185.303 58.536C193.559 62.28 200.663 67.752 206.615 74.952C212.567 82.056 216.455 89.784 218.279 98.136C218.375 98.328 218.327 98.52 218.135 98.712C217.943 98.904 217.751 99 217.559 99L213.527 99.432C213.239 99.432 212.999 99.24 212.807 98.856C211.463 91.752 208.151 85.032 202.871 78.696C197.591 72.36 191.207 67.416 183.719 63.864C183.527 77.592 183.191 89.112 182.711 98.424C182.711 98.616 182.615 98.808 182.423 99C182.327 99.096 182.183 99.144 181.991 99.144L177.959 99C177.479 99 177.239 98.76 177.239 98.28C178.007 83.976 178.391 65.976 178.391 44.28C178.391 26.424 178.151 12.024 177.671 1.08C177.671 0.599994 177.911 0.359991 178.391 0.359991L182.423 0.0719948C182.903 0.0719948 183.143 0.311995 183.143 0.791994C183.623 15 183.863 29.064 183.863 42.984V52.2C191.639 43.464 198.215 34.536 203.591 25.416C209.063 16.2 212.423 8.13599 213.671 1.224C213.863 0.743998 214.151 0.503998 214.535 0.503998L218.567 0.935992ZM294.952 1.224C295.24 16.488 295.384 30.408 295.384 42.984V57.24C295.288 70.392 295 84.024 294.52 98.136C294.52 98.328 294.424 98.52 294.232 98.712C294.136 98.808 293.992 98.856 293.8 98.856H289.768C289.288 98.856 289.048 98.616 289.048 98.136C289.432 83.352 289.672 72.408 289.768 65.304C285.928 65.304 278.92 65.496 268.744 65.88L258.088 66.168C257.992 73.272 257.656 84.024 257.08 98.424C257.08 98.904 256.84 99.144 256.36 99.144L252.328 98.856C252.136 98.856 251.944 98.808 251.752 98.712C251.656 98.52 251.608 98.328 251.608 98.136C252.184 83.64 252.52 73.032 252.616 66.312H249.016C248.536 66.312 248.296 66.072 248.296 65.592L248.008 61.56C248.008 61.08 248.248 60.84 248.728 60.84H252.76V58.392C252.856 54.936 252.904 49.944 252.904 43.416C252.904 30.456 252.616 16.44 252.04 1.368C252.04 1.176 252.088 1.032 252.184 0.935992C252.376 0.743995 252.568 0.647996 252.76 0.647996L256.792 0.359991C257.272 0.359991 257.512 0.599994 257.512 1.08C258.088 16.44 258.376 30.552 258.376 43.416C258.376 49.944 258.328 54.936 258.232 58.392V60.696C262.84 60.504 266.488 60.408 269.176 60.408C279.352 60.024 286.264 59.832 289.912 59.832V57.24V43.128C289.912 30.552 289.768 16.584 289.48 1.224C289.48 0.743998 289.72 0.503998 290.2 0.503998H294.232C294.424 0.503998 294.568 0.599997 294.664 0.791994C294.856 0.887993 294.952 1.03199 294.952 1.224ZM359.128 97.992C359.224 98.28 359.176 98.52 358.984 98.712C358.792 98.808 358.6 98.856 358.408 98.856C346.696 99.336 337.72 99.576 331.48 99.576C325.336 99.576 316.264 99.336 304.264 98.856C304.936 84.84 305.32 72.84 305.416 62.856L301.816 62.568L301.96 57.096L305.56 57.384V48.168C305.56 33.192 305.272 17.304 304.696 0.503998C307.768 0.407993 312.328 0.359991 318.376 0.359991C328.552 0.359991 337.672 0.551991 345.736 0.935992C346.024 0.935992 346.216 1.07999 346.312 1.368C346.504 1.55999 346.552 1.75199 346.456 1.944L345.448 5.832C345.448 6.024 345.352 6.16799 345.16 6.26399C345.064 6.36 344.92 6.408 344.728 6.408C335.512 6.024 328.552 5.832 323.848 5.832C320.872 5.832 316.312 5.928 310.168 6.11999C310.744 19.752 311.032 32.616 311.032 44.712C311.032 50.472 310.984 54.792 310.888 57.672C315.496 57.96 320.104 58.104 324.712 58.104H329.32C329.608 58.104 329.848 58.248 330.04 58.536C330.232 58.728 330.28 58.92 330.184 59.112L329.32 62.856C329.32 63.24 329.08 63.432 328.6 63.432H323.848C320.968 63.432 316.648 63.336 310.888 63.144C310.504 76.2 310.12 86.28 309.736 93.384C318.472 93.768 326.584 93.96 334.072 93.96C341.656 93.96 349.528 93.768 357.688 93.384C358.168 93.384 358.408 93.576 358.408 93.96L359.128 97.992ZM419.282 94.392C419.57 94.68 419.57 95.064 419.282 95.544L416.546 98.424C416.162 98.808 415.826 98.856 415.538 98.568L380.258 69.048L374.786 69.48C374.882 72.84 374.93 77.784 374.93 84.312C374.93 90.648 374.882 95.304 374.786 98.28C374.786 98.76 374.498 99 373.922 99L370.034 98.568C369.842 98.568 369.65 98.52 369.458 98.424C369.362 98.232 369.314 98.04 369.314 97.848C369.41 94.776 369.458 89.928 369.458 83.304C369.458 69.672 369.122 55.464 368.45 40.68C367.874 25.8 367.058 12.456 366.002 0.647996H366.146C367.202 0.551997 368.738 0.503998 370.754 0.503998C377.666 0.503998 384.29 1.608 390.626 3.816C397.058 6.024 402.53 9.096 407.042 13.032C411.554 16.872 414.674 21.144 416.402 25.848C417.938 29.88 418.706 33.912 418.706 37.944C418.706 45.336 415.97 51.672 410.498 56.952C405.026 62.136 397.346 65.784 387.458 67.896L419.282 94.392ZM371.906 5.976C373.346 23.16 374.306 42.504 374.786 64.008C386.882 63.24 396.29 60.552 403.01 55.944C409.73 51.24 413.09 45.144 413.09 37.656C413.09 34.392 412.466 31.032 411.218 27.576C409.874 23.736 407.186 20.184 403.154 16.92C399.122 13.656 394.322 11.064 388.754 9.144C383.186 7.128 377.57 6.07199 371.906 5.976ZM483.581 97.992C483.677 98.28 483.629 98.52 483.437 98.712C483.245 98.808 483.053 98.856 482.861 98.856C471.149 99.336 462.173 99.576 455.933 99.576C449.789 99.576 440.717 99.336 428.717 98.856C429.389 84.84 429.773 72.84 429.869 62.856L426.269 62.568L426.413 57.096L430.013 57.384V48.168C430.013 33.192 429.725 17.304 429.149 0.503998C432.221 0.407993 436.781 0.359991 442.829 0.359991C453.005 0.359991 462.125 0.551991 470.189 0.935992C470.477 0.935992 470.669 1.07999 470.765 1.368C470.957 1.55999 471.005 1.75199 470.909 1.944L469.901 5.832C469.901 6.024 469.805 6.16799 469.613 6.26399C469.517 6.36 469.373 6.408 469.181 6.408C459.965 6.024 453.005 5.832 448.301 5.832C445.325 5.832 440.765 5.928 434.621 6.11999C435.197 19.752 435.485 32.616 435.485 44.712C435.485 50.472 435.437 54.792 435.341 57.672C439.949 57.96 444.557 58.104 449.165 58.104H453.773C454.061 58.104 454.301 58.248 454.493 58.536C454.685 58.728 454.733 58.92 454.637 59.112L453.773 62.856C453.773 63.24 453.533 63.432 453.053 63.432H448.301C445.421 63.432 441.101 63.336 435.341 63.144C434.957 76.2 434.573 86.28 434.189 93.384C442.925 93.768 451.037 93.96 458.525 93.96C466.109 93.96 473.981 93.768 482.141 93.384C482.621 93.384 482.861 93.576 482.861 93.96L483.581 97.992Z" />
</svg>
