<svg width="1764" height="284" viewBox="0 0 1764 284" fill="none" xmlns="http://www.w3.org/2000/svg">
<path d="M43.9688 271.406C38.5312 271.406 33.1875 270.281 27.9375 268.031C22.6875 265.969 18 262.969 13.875 259.031C9.75 255.094 6.46875 250.219 4.03125 244.406C1.59375 238.781 0.5625 232.312 0.9375 225C1.5 212.25 4.03125 200.438 8.53125 189.562C13.0312 178.688 18.2812 169.312 24.2812 161.438C30.2812 153.562 36.375 147.469 42.5625 143.156C48.75 138.656 53.9062 136.406 58.0312 136.406C60.6562 136.406 63 137.344 65.0625 139.219C67.3125 140.906 69 143.156 70.125 145.969C71.4375 148.594 72.1875 151.594 72.375 154.969C72.75 158.156 72.375 161.25 71.25 164.25C69.375 162.938 65.9062 163.406 60.8438 165.656C55.7812 167.906 50.5312 171.75 45.0938 177.188C39.6562 182.438 34.7812 189 30.4688 196.875C26.1562 204.75 23.7188 213.562 23.1562 223.312C22.7812 229.688 23.0625 235.125 24 239.625C25.125 244.125 26.625 247.781 28.5 250.594C30.5625 253.406 32.8125 255.469 35.25 256.781C37.875 258.094 40.5938 258.75 43.4062 258.75C50.1562 258.75 56.3438 256.219 61.9688 251.156C67.5938 246.094 72.75 238.969 77.4375 229.781C82.125 220.781 86.5312 210 90.6562 197.438C94.7812 184.688 98.7188 170.625 102.469 155.25C103.594 150.562 105 144.75 106.688 137.812C108.562 130.875 110.531 123.375 112.594 115.312C114.656 107.062 116.812 98.625 119.062 90C121.5 81.1875 123.75 72.8438 125.812 64.9688C127.875 56.9063 129.844 49.5 131.719 42.75C133.594 35.8125 135.094 30.1875 136.219 25.875C130.031 25.875 123.844 26.25 117.656 27C112.406 27.5625 106.969 28.4062 101.344 29.5312C95.7188 30.4688 91.0312 31.7812 87.2812 33.4688C86.9062 33.2813 86.625 32.8125 86.4375 32.0625C86.25 31.125 86.0625 30.1875 85.875 29.25C85.6875 28.125 85.5 26.9062 85.3125 25.5938C85.125 24.0937 85.125 22.5938 85.3125 21.0938C85.5 19.7813 85.6875 18.375 85.875 16.875C86.0625 15.1875 86.4375 13.5 87 11.8125C91.875 10.3125 97.5 9.1875 103.875 8.4375C110.438 7.5 116.531 6.84375 122.156 6.46875C128.719 5.90625 135.469 5.625 142.406 5.625C147.469 5.625 152.719 5.90625 158.156 6.46875C162.844 6.84375 168.094 7.40625 173.906 8.15625C179.719 8.90625 185.531 10.0312 191.344 11.5312C192.656 12.8437 193.5 14.3438 193.875 16.0312C194.062 16.7812 194.156 17.625 194.156 18.5625C194.156 20.0625 193.875 21.4688 193.312 22.7812C192.938 23.9062 192.281 25.125 191.344 26.4375C190.594 27.5625 189.562 28.5 188.25 29.25C186.188 28.6875 183.562 28.3125 180.375 28.125C177.375 27.75 174.375 27.375 171.375 27C168 26.625 164.438 26.3437 160.688 26.1562L130.875 158.906C130.125 162.094 128.812 167.156 126.938 174.094C125.062 180.844 122.438 188.438 119.062 196.875C115.875 205.125 111.938 213.656 107.25 222.469C102.75 231.281 97.4062 239.25 91.2188 246.375C85.0312 253.688 78 259.688 70.125 264.375C62.25 269.062 53.5312 271.406 43.9688 271.406ZM290.062 4.21875C296.625 4.21875 301.969 6.09375 306.094 9.84375C310.406 13.4062 312.281 19.9688 311.719 29.5312C311.531 32.7188 310.781 38.7187 309.469 47.5312C308.156 56.1562 306.562 66.375 304.688 78.1875C302.812 90 300.656 102.75 298.219 116.438C295.969 129.938 293.812 143.156 291.75 156.094H297.656C299.531 156.094 301.594 156 303.844 155.812C306.094 155.625 308.438 155.344 310.875 154.969C309.938 157.219 308.906 159.375 307.781 161.438C306.656 163.312 305.531 165 304.406 166.5C303.094 168.188 301.781 169.688 300.469 171C298.781 173.062 296.812 174.938 294.562 176.625C292.312 178.125 290.156 179.344 288.094 180.281C286.781 189.469 285.656 197.719 284.719 205.031C283.969 212.156 283.5 218.062 283.312 222.75C282.938 229.875 283.125 236.531 283.875 242.719C284.438 248.156 285.562 253.688 287.25 259.312C288.938 264.938 291.656 269.438 295.406 272.812L262.781 283.5C260.531 280.312 258.844 276 257.719 270.562C256.781 265.312 256.125 260.062 255.75 254.812C255.188 248.625 255.094 242.25 255.469 235.688C255.844 229.125 256.875 220.594 258.562 210.094C260.25 199.406 262.125 187.781 264.188 175.219C260.438 174.094 256.312 173.156 251.812 172.406C247.5 171.656 242.625 171.281 237.188 171.281C232.312 171.281 227.156 171.469 221.719 171.844C216.469 172.219 211.219 172.688 205.969 173.25C203.719 181.5 201.469 190.219 199.219 199.406C196.781 209.344 194.531 217.781 192.469 224.719C190.594 231.844 188.719 237.75 186.844 242.438C185.156 247.125 183.375 250.875 181.5 253.688C179.812 256.5 177.938 258.562 175.875 259.875C173.625 261 170.812 262.031 167.438 262.969C164.25 263.906 160.219 264.844 155.344 265.781C150.469 266.719 144.188 267.469 136.5 268.031C139.312 264.656 141.75 261.562 143.812 258.75C145.875 255.938 147.938 252.469 150 248.344C152.062 244.219 154.406 238.875 157.031 232.312C159.469 225.938 162.656 217.5 166.594 207C168.281 202.688 169.969 198 171.656 192.938C173.531 187.688 175.5 182.344 177.562 176.906C170.812 177.844 165.094 178.688 160.406 179.438C155.719 180.188 152.906 180.75 151.969 181.125C150.469 181.312 149.25 181.312 148.312 181.125C145.875 180.75 144.562 179.531 144.375 177.469C144.562 174.844 145.5 173.062 147.188 172.125C148.688 171.188 151.031 170.062 154.219 168.75C155.719 168 159.188 166.688 164.625 164.812C169.875 162.75 176.344 160.594 184.031 158.344C186.844 150.469 189.562 142.688 192.188 135C195 127.125 197.719 119.625 200.344 112.5C202.969 105.375 205.5 98.7188 207.938 92.5312C210.375 86.1562 212.625 80.7188 214.688 76.2188C217.875 69.2813 221.906 61.6875 226.781 53.4375C231.844 45 237.562 37.125 243.938 29.8125C250.5 22.5 257.625 16.4063 265.312 11.5312C273.188 6.65625 281.438 4.21875 290.062 4.21875ZM286.969 62.7188C289.031 54.2812 290.438 47.3438 291.188 41.9062C291.938 36.4687 292.219 32.25 292.031 29.25C291.844 26.0625 291.188 23.9062 290.062 22.7812C289.125 21.4688 287.906 20.8125 286.406 20.8125C283.969 20.8125 280.969 21.75 277.406 23.625C273.844 25.5 270.094 28.2188 266.156 31.7812C262.219 35.1562 258.281 39.4688 254.344 44.7188C250.594 49.7812 247.219 55.5937 244.219 62.1562C239.906 71.9062 235.031 83.9062 229.594 98.1562C224.156 112.219 218.25 130.219 211.875 152.156C215.625 151.594 219.281 151.125 222.844 150.75C226.594 150.375 230.25 150.188 233.812 150.188C240.188 150.188 246.281 150.469 252.094 151.031C257.906 151.406 263.25 151.875 268.125 152.438C269.812 143.438 271.5 134.625 273.188 126C275.062 117.188 276.844 108.844 278.531 100.969C280.219 93.0938 281.719 85.875 283.031 79.3125C284.531 72.75 285.844 67.2188 286.969 62.7188ZM371.344 83.25C370.406 86.625 369.188 91.5 367.688 97.875C366.375 104.062 364.875 111.188 363.188 119.25C361.688 127.312 360 135.844 358.125 144.844C356.438 153.656 354.844 162.375 353.344 171C352.031 179.625 350.812 187.781 349.688 195.469C348.562 202.969 347.906 209.344 347.719 214.594C347.531 220.406 347.531 226.125 347.719 231.75C347.906 236.625 348.188 241.688 348.562 246.938C349.125 252.375 350.062 257.156 351.375 261.281C348.188 262.781 345.375 263.812 342.938 264.375C340.5 265.125 338.531 265.688 337.031 266.062C335.156 266.438 333.562 266.625 332.25 266.625C330.75 266.625 328.969 266.438 326.906 266.062C324.844 265.875 322.969 264.938 321.281 263.25C319.594 261.562 318.188 258.938 317.062 255.375C315.938 251.812 315.562 246.656 315.938 239.906C316.125 235.406 316.875 229.781 318.188 223.031C319.312 216.469 320.719 209.25 322.406 201.375C324.094 193.312 325.969 185.062 328.031 176.625C330.281 168 332.438 159.656 334.5 151.594C336.562 143.344 338.438 135.562 340.125 128.25C342 120.938 343.594 114.656 344.906 109.406C346.594 102.656 348.469 94.7812 350.531 85.7812C354.094 70.4063 359.438 47.3438 366.562 16.5938C367.875 15.6562 369.281 14.8125 370.781 14.0625C372.281 13.125 373.594 12.375 374.719 11.8125C376.031 11.0625 377.344 10.5 378.656 10.125C384.656 7.875 388.875 7.59375 391.312 9.28125C393.938 10.9688 395.438 14.3438 395.812 19.4062C396 22.7812 396.375 27.6563 396.938 34.0312C397.688 40.4062 398.344 47.5312 398.906 55.4062C399.469 63.2812 399.938 71.4375 400.312 79.875C400.688 88.125 400.875 95.8125 400.875 102.938C400.875 107.625 400.969 113.156 401.156 119.531C401.344 125.906 401.625 132.656 402 139.781C402.375 146.906 402.844 154.219 403.406 161.719C403.969 169.031 404.625 176.062 405.375 182.812C406.125 189.562 406.875 195.75 407.625 201.375C408.562 207 409.5 211.594 410.438 215.156C410.812 216.656 411.188 218.062 411.562 219.375C412.125 220.688 412.594 222 412.969 223.312C414.094 218.812 415.312 213.469 416.625 207.281C418.125 201.094 419.625 194.531 421.125 187.594C422.812 180.469 424.406 173.25 425.906 165.938C427.406 158.438 428.719 151.406 429.844 144.844C430.781 139.594 431.812 132.844 432.938 124.594C434.062 116.344 435.375 107.438 436.875 97.875C434.812 97.125 432.844 96.375 430.969 95.625C429.281 94.875 427.594 93.9375 425.906 92.8125C424.219 91.6875 422.812 90.375 421.688 88.875C421.875 86.4375 422.062 84.6562 422.25 83.5312C422.625 82.4062 423.562 82.3125 425.062 83.25C426.188 83.8125 427.875 84.4688 430.125 85.2188C432.562 85.9688 435.375 86.5312 438.562 86.9062C439.5 81.6562 440.531 76.4062 441.656 71.1562C442.969 65.9063 444.281 60.8438 445.594 55.9688C447.656 47.9063 450 40.6875 452.625 34.3125C455.25 27.75 458.25 22.2188 461.625 17.7188C465.188 13.2188 469.312 9.75 474 7.3125C478.688 4.875 484.125 3.5625 490.312 3.375C496.125 3.375 500.812 5.8125 504.375 10.6875C508.125 15.375 509.719 23.625 509.156 35.4375C508.781 44.25 506.906 52.2187 503.531 59.3438C500.344 66.2812 496.406 72.4688 491.719 77.9062C487.031 83.1562 481.875 87.5625 476.25 91.125C470.625 94.5 465.281 96.9375 460.219 98.4375C458.531 107.25 456.938 116.156 455.438 125.156C453.938 133.969 452.438 142.594 450.938 151.031C449.625 159.281 448.219 167.156 446.719 174.656C445.406 182.156 444.094 188.812 442.781 194.625C441.469 200.25 440.062 206.344 438.562 212.906C437.25 218.531 435.656 225 433.781 232.312C431.906 239.625 429.938 247.312 427.875 255.375C427.125 257.062 426.188 258.469 425.062 259.594C423.938 260.906 422.812 261.938 421.688 262.688C420.375 263.625 419.062 264.375 417.75 264.938C414 266.438 410.812 266.719 408.188 265.781C405.562 264.844 403.219 262.312 401.156 258.188C399.094 253.875 397.219 248.531 395.531 242.156C394.031 235.781 392.438 228.844 390.75 221.344C389.062 213.281 387.75 204.562 386.812 195.188C386.062 185.625 385.406 175.969 384.844 166.219C384.469 156.281 384.188 146.438 384 136.688C383.812 126.938 383.438 117.75 382.875 109.125C381.938 97.875 381 87.8438 380.062 79.0312C379.125 70.0312 378.094 62.4375 376.969 56.25C376.219 60 375.375 64.2188 374.438 68.9062C373.5 73.5938 372.469 78.375 371.344 83.25ZM465.844 71.4375C464.906 75 464.156 78.375 463.594 81.5625C468.094 78.9375 472.312 75.6562 476.25 71.7188C480.188 67.5938 483.562 63.2812 486.375 58.7812C489.188 54.2812 491.344 49.7812 492.844 45.2812C494.531 40.7812 495.469 36.6563 495.656 32.9062C495.844 30.2812 495.562 28.2188 494.812 26.7188C494.25 25.0312 493.125 24.1875 491.438 24.1875C490.5 24.1875 489 24.75 486.938 25.875C485.062 26.8125 482.906 28.9688 480.469 32.3438C478.031 35.5313 475.5 40.2188 472.875 46.4062C470.438 52.5938 468.094 60.9375 465.844 71.4375ZM544.875 270.844C535.688 270.844 527.438 268.406 520.125 263.531C512.812 258.844 506.625 252.375 501.562 244.125C496.5 235.875 492.75 226.312 490.312 215.438C488.062 204.562 487.219 193.031 487.781 180.844C488.531 167.906 490.5 154.594 493.688 140.906C496.875 127.031 501.188 113.531 506.625 100.406C512.062 87.2812 518.344 74.8125 525.469 63C532.781 51.1875 540.75 40.875 549.375 32.0625C558.188 23.25 567.562 16.3125 577.5 11.25C587.438 6 597.844 3.375 608.719 3.375C615.844 3.375 621.844 5.15625 626.719 8.71875C631.594 12.2812 635.344 16.9688 637.969 22.7812C640.781 28.4062 642.562 34.7812 643.312 41.9062C644.062 49.0313 643.969 56.1562 643.031 63.2812C642.281 70.2187 640.688 76.9688 638.25 83.5312C636 89.9062 633.188 95.1562 629.812 99.2812C625.5 104.719 621.562 107.625 618 108C614.625 108.188 611.344 107.156 608.156 104.906C606.844 103.781 605.531 102.469 604.219 100.969C602.906 99.6562 601.5 98.0625 600 96.1875C598.5 94.125 596.906 91.5938 595.219 88.5938C598.781 87.2812 602.062 85.125 605.062 82.125C608.062 78.9375 610.594 75.375 612.656 71.4375C614.906 67.5 616.594 63.375 617.719 59.0625C619.031 54.5625 619.781 50.1563 619.969 45.8438C620.156 42.4688 620.062 39.1875 619.688 36C619.312 32.625 618.562 29.7187 617.438 27.2812C616.312 24.6562 614.719 22.5938 612.656 21.0938C610.781 19.4062 608.344 18.5625 605.344 18.5625C597.844 18.5625 590.531 21.4688 583.406 27.2812C576.281 32.9062 569.531 40.5 563.156 50.0625C556.969 59.4375 551.156 70.2187 545.719 82.4062C540.469 94.5938 535.875 107.156 531.938 120.094C528 133.031 524.812 145.781 522.375 158.344C519.938 170.906 518.438 182.344 517.875 192.656C517.125 205.594 517.594 216.094 519.281 224.156C520.969 232.219 523.219 238.5 526.031 243C529.031 247.688 532.219 250.781 535.594 252.281C538.969 253.969 542.062 254.812 544.875 254.812C550.125 254.812 556.031 252.375 562.594 247.5C569.156 242.625 575.438 235.969 581.438 227.531C587.438 219.281 592.781 209.719 597.469 198.844C602.344 187.969 605.812 176.531 607.875 164.531C603.188 164.531 598.406 164.625 593.531 164.812C588.844 164.812 584.344 164.906 580.031 165.094C575.719 165.281 571.875 165.562 568.5 165.938C565.125 166.125 562.5 166.406 560.625 166.781C559.312 166.219 558.375 165.562 557.812 164.812C557.438 164.062 557.062 163.219 556.688 162.281C556.312 161.531 556.125 160.594 556.125 159.469C556.125 158.344 556.312 157.312 556.688 156.375C557.062 155.438 557.531 154.5 558.094 153.562C558.656 152.438 559.406 151.312 560.344 150.188C566.344 149.062 572.25 148.125 578.062 147.375C583.875 146.625 589.875 146.062 596.062 145.688C602.438 145.125 609.188 144.75 616.312 144.562C623.625 144.188 631.781 143.906 640.781 143.719C644.531 143.531 646.781 144 647.531 145.125C648.469 146.25 648.188 149.062 646.688 153.562C645.562 157.125 644.062 160.031 642.188 162.281C640.5 164.531 637.594 165.469 633.469 165.094C632.156 165.094 631.125 165 630.375 164.812C628.688 175.875 625.125 187.594 619.688 199.969C614.25 212.344 607.594 223.781 599.719 234.281C591.844 244.781 583.125 253.5 573.562 260.438C564.188 267.375 554.625 270.844 544.875 270.844ZM801.938 270.844C792.75 270.844 784.5 268.406 777.188 263.531C769.875 258.844 763.688 252.375 758.625 244.125C753.562 235.875 749.812 226.312 747.375 215.438C745.125 204.562 744.281 193.031 744.844 180.844C745.594 167.906 747.562 154.594 750.75 140.906C753.938 127.031 758.25 113.531 763.688 100.406C769.125 87.2812 775.406 74.8125 782.531 63C789.844 51.1875 797.812 40.875 806.438 32.0625C815.25 23.25 824.625 16.3125 834.562 11.25C844.5 6 854.906 3.375 865.781 3.375C872.906 3.375 878.906 5.15625 883.781 8.71875C888.656 12.2812 892.406 16.9688 895.031 22.7812C897.844 28.4062 899.625 34.7812 900.375 41.9062C901.125 49.0313 901.031 56.1562 900.094 63.2812C899.344 70.2187 897.75 76.9688 895.312 83.5312C893.062 89.9062 890.25 95.1562 886.875 99.2812C882.562 104.719 878.625 107.625 875.062 108C871.688 108.188 868.406 107.156 865.219 104.906C863.906 103.781 862.594 102.469 861.281 100.969C859.969 99.6562 858.562 98.0625 857.062 96.1875C855.562 94.125 853.969 91.5938 852.281 88.5938C855.844 87.2812 859.125 85.125 862.125 82.125C865.125 78.9375 867.656 75.375 869.719 71.4375C871.969 67.5 873.656 63.375 874.781 59.0625C876.094 54.5625 876.844 50.1563 877.031 45.8438C877.219 42.4688 877.125 39.1875 876.75 36C876.375 32.625 875.625 29.7187 874.5 27.2812C873.375 24.6562 871.781 22.5938 869.719 21.0938C867.844 19.4062 865.406 18.5625 862.406 18.5625C854.906 18.5625 847.594 21.4688 840.469 27.2812C833.344 32.9062 826.594 40.5 820.219 50.0625C814.031 59.4375 808.219 70.2187 802.781 82.4062C797.531 94.5938 792.938 107.156 789 120.094C785.062 133.031 781.875 145.781 779.438 158.344C777 170.906 775.5 182.344 774.938 192.656C774.188 205.594 774.656 216.094 776.344 224.156C778.031 232.219 780.281 238.5 783.094 243C786.094 247.688 789.281 250.781 792.656 252.281C796.031 253.969 799.125 254.812 801.938 254.812C807.188 254.812 813.094 252.375 819.656 247.5C826.219 242.625 832.5 235.969 838.5 227.531C844.5 219.281 849.844 209.719 854.531 198.844C859.406 187.969 862.875 176.531 864.938 164.531C860.25 164.531 855.469 164.625 850.594 164.812C845.906 164.812 841.406 164.906 837.094 165.094C832.781 165.281 828.938 165.562 825.562 165.938C822.188 166.125 819.562 166.406 817.688 166.781C816.375 166.219 815.438 165.562 814.875 164.812C814.5 164.062 814.125 163.219 813.75 162.281C813.375 161.531 813.188 160.594 813.188 159.469C813.188 158.344 813.375 157.312 813.75 156.375C814.125 155.438 814.594 154.5 815.156 153.562C815.719 152.438 816.469 151.312 817.406 150.188C823.406 149.062 829.312 148.125 835.125 147.375C840.938 146.625 846.938 146.062 853.125 145.688C859.5 145.125 866.25 144.75 873.375 144.562C880.688 144.188 888.844 143.906 897.844 143.719C901.594 143.531 903.844 144 904.594 145.125C905.531 146.25 905.25 149.062 903.75 153.562C902.625 157.125 901.125 160.031 899.25 162.281C897.562 164.531 894.656 165.469 890.531 165.094C889.219 165.094 888.188 165 887.438 164.812C885.75 175.875 882.188 187.594 876.75 199.969C871.312 212.344 864.656 223.781 856.781 234.281C848.906 244.781 840.188 253.5 830.625 260.438C821.25 267.375 811.688 270.844 801.938 270.844ZM971.531 268.312C962.719 268.312 954.469 266.906 946.781 264.094C939.281 261.281 932.625 257.344 926.812 252.281C921.188 247.219 916.688 241.219 913.312 234.281C909.938 227.531 908.156 220.125 907.969 212.062C907.781 201.562 909.469 192.188 913.031 183.938C916.406 175.688 920.906 168.375 926.531 162C932.344 155.625 938.906 150.281 946.219 145.969C953.531 141.469 961.031 137.812 968.719 135C964.594 132.75 960.656 130.031 956.906 126.844C953.344 123.656 950.156 120.094 947.344 116.156C944.531 112.219 942.281 108.094 940.594 103.781C938.906 99.4688 938.062 95.1562 938.062 90.8438C937.688 77.7188 940.312 65.8125 945.938 55.125C951.75 44.4375 959.156 35.3437 968.156 27.8438C977.156 20.1562 987.188 14.25 998.25 10.125C1009.5 6 1020.47 3.9375 1031.16 3.9375C1038.28 3.9375 1044.38 5.15625 1049.44 7.59375C1054.5 9.84375 1058.62 12.75 1061.81 16.3125C1065 19.6875 1067.34 23.4375 1068.84 27.5625C1070.53 31.5 1071.47 35.1562 1071.66 38.5312C1071.84 44.7188 1071 51 1069.12 57.375C1067.44 63.75 1065.19 69.5625 1062.38 74.8125C1059.75 79.875 1056.75 84.0938 1053.38 87.4688C1050 90.6562 1046.72 92.25 1043.53 92.25C1041.09 92.25 1038.56 91.875 1035.94 91.125C1033.69 90.5625 1031.06 89.625 1028.06 88.3125C1025.06 87 1022.06 85.0312 1019.06 82.4062C1023.94 80.5312 1028.25 77.9062 1032 74.5312C1035.75 70.9688 1038.84 67.0313 1041.28 62.7188C1043.91 58.4062 1045.78 54 1046.91 49.5C1048.22 44.8125 1048.88 40.4062 1048.88 36.2812C1048.69 30.2812 1047.28 25.6875 1044.66 22.5C1042.03 19.125 1037.81 17.4375 1032 17.4375C1024.12 17.4375 1016.25 19.4062 1008.38 23.3438C1000.5 27.0938 993.469 32.4375 987.281 39.375C981.281 46.125 976.5 54.2812 972.938 63.8438C969.562 73.2188 968.438 83.4375 969.562 94.5C970.5 102.938 973.031 110.062 977.156 115.875C981.469 121.688 985.5 126.188 989.25 129.375C992.25 129 995.062 128.719 997.688 128.531C1000.31 128.156 1002.75 127.969 1005 127.969C1008.19 127.969 1011.38 128.531 1014.56 129.656C1017.75 130.781 1019.34 132.375 1019.34 134.438C1019.34 135.938 1018.97 137.625 1018.22 139.5C1017.66 141.375 1016.62 143.156 1015.12 144.844C1013.62 146.531 1011.84 147.938 1009.78 149.062C1007.72 150.188 1005.28 150.75 1002.47 150.75C1000.22 150.75 997.5 150.188 994.312 149.062C991.125 147.938 987.938 146.531 984.75 144.844C977.625 146.344 971.156 149.062 965.344 153C959.531 156.75 954.562 161.25 950.438 166.5C946.5 171.75 943.406 177.469 941.156 183.656C938.906 189.844 937.875 195.844 938.062 201.656C938.25 207.094 939.094 212.531 940.594 217.969C942.094 223.594 944.438 228.562 947.625 232.875C950.812 237.188 954.938 240.656 960 243.281C965.25 246.094 971.531 247.5 978.844 247.5C984.281 247.5 989.438 246.281 994.312 243.844C999.375 241.594 1004.06 238.688 1008.38 235.125C1012.69 231.562 1016.62 227.625 1020.19 223.312C1023.75 219 1026.84 214.781 1029.47 210.656C1032.09 206.531 1034.25 202.781 1035.94 199.406C1037.81 196.031 1039.12 193.594 1039.88 192.094C1040.44 190.969 1041.19 190.125 1042.12 189.562C1043.25 189 1044.28 188.906 1045.22 189.281C1046.34 189.469 1047.19 190.125 1047.75 191.25C1048.31 192.375 1048.31 194.062 1047.75 196.312C1046.25 203.062 1043.44 210.562 1039.31 218.812C1035.19 227.25 1029.84 235.125 1023.28 242.438C1016.91 249.75 1009.31 255.844 1000.5 260.719C991.875 265.781 982.219 268.312 971.531 268.312ZM1214.81 121.5C1213.88 133.312 1212 145.219 1209.19 157.219C1206.38 169.031 1202.81 180.469 1198.5 191.531C1194.38 202.594 1189.5 212.906 1183.88 222.469C1178.25 232.219 1171.97 240.656 1165.03 247.781C1158.28 254.906 1150.97 260.531 1143.09 264.656C1135.41 268.781 1127.34 270.844 1118.91 270.844C1117.22 270.844 1114.59 270.469 1111.03 269.719C1107.66 269.156 1104 267.656 1100.06 265.219C1096.12 262.969 1092.09 259.594 1087.97 255.094C1084.03 250.594 1080.56 244.5 1077.56 236.812C1074.56 229.312 1072.41 219.938 1071.09 208.688C1069.78 197.438 1069.78 183.844 1071.09 167.906C1073.34 142.781 1077.94 120 1084.88 99.5625C1092 78.9375 1100.06 61.3125 1109.06 46.6875C1118.25 32.0625 1127.72 20.8125 1137.47 12.9375C1147.22 4.875 1155.84 0.84375 1163.34 0.84375C1166.34 0.84375 1168.78 1.5 1170.66 2.8125C1172.72 3.9375 1174.31 5.4375 1175.44 7.3125C1176.75 6.9375 1178.25 6.65625 1179.94 6.46875C1181.62 6.28125 1183.5 6.1875 1185.56 6.1875C1191 6.1875 1195.78 9 1199.91 14.625C1204.22 20.25 1207.69 28.125 1210.31 38.25C1213.12 48.375 1214.91 60.5625 1215.66 74.8125C1216.59 88.875 1216.31 104.438 1214.81 121.5ZM1119.75 254.531C1127.06 254.531 1134.56 250.781 1142.25 243.281C1149.94 235.781 1157.06 225.656 1163.62 212.906C1170.19 199.969 1175.81 184.969 1180.5 167.906C1185.19 150.844 1188.38 132.75 1190.06 113.625C1190.44 108.562 1190.72 102.75 1190.91 96.1875C1191.09 89.625 1191.09 82.9688 1190.91 76.2188C1190.72 69.4688 1190.25 62.8125 1189.5 56.25C1188.94 49.5 1188.09 43.5938 1186.97 38.5312C1185.84 33.4688 1184.44 29.3438 1182.75 26.1562C1181.06 22.9687 1179.09 21.375 1176.84 21.375C1174.41 21.5625 1171.97 22.3125 1169.53 23.625C1167.47 24.75 1165.03 26.625 1162.22 29.25C1159.59 31.6875 1156.97 35.1562 1154.34 39.6562C1153.78 39.2812 1153.31 38.7187 1152.94 37.9688C1152.75 37.2188 1152.47 36.4687 1152.09 35.7188C1151.72 34.9688 1151.44 34.125 1151.25 33.1875C1150.88 32.625 1150.69 31.9687 1150.69 31.2188C1150.69 30.2812 1150.59 29.25 1150.41 28.125C1146.66 32.25 1142.16 38.1562 1136.91 45.8438C1131.84 53.3437 1126.69 62.7188 1121.44 73.9688C1116.38 85.2188 1111.69 98.5312 1107.38 113.906C1103.25 129.094 1100.34 146.438 1098.66 165.938C1097.16 183.188 1096.78 197.531 1097.53 208.969C1098.28 220.406 1099.69 229.5 1101.75 236.25C1104 243 1106.72 247.688 1109.91 250.312C1113.09 253.125 1116.38 254.531 1119.75 254.531ZM1274.72 83.25C1273.78 86.625 1272.56 91.5 1271.06 97.875C1269.75 104.062 1268.25 111.188 1266.56 119.25C1265.06 127.312 1263.38 135.844 1261.5 144.844C1259.81 153.656 1258.22 162.375 1256.72 171C1255.41 179.625 1254.19 187.781 1253.06 195.469C1251.94 202.969 1251.28 209.344 1251.09 214.594C1250.91 220.406 1250.91 226.125 1251.09 231.75C1251.28 236.625 1251.56 241.688 1251.94 246.938C1252.5 252.375 1253.44 257.156 1254.75 261.281C1251.56 262.781 1248.75 263.812 1246.31 264.375C1243.88 265.125 1241.91 265.688 1240.41 266.062C1238.53 266.438 1236.94 266.625 1235.62 266.625C1234.12 266.625 1232.34 266.438 1230.28 266.062C1228.22 265.875 1226.34 264.938 1224.66 263.25C1222.97 261.562 1221.56 258.938 1220.44 255.375C1219.31 251.812 1218.94 246.656 1219.31 239.906C1219.5 235.406 1220.25 229.781 1221.56 223.031C1222.69 216.469 1224.09 209.25 1225.78 201.375C1227.47 193.312 1229.34 185.062 1231.41 176.625C1233.66 168 1235.81 159.656 1237.88 151.594C1239.94 143.344 1241.81 135.562 1243.5 128.25C1245.38 120.938 1246.97 114.656 1248.28 109.406C1249.97 102.656 1251.84 94.7812 1253.91 85.7812C1257.47 70.4063 1262.81 47.3438 1269.94 16.5938C1271.25 15.6562 1272.66 14.8125 1274.16 14.0625C1275.66 13.125 1276.97 12.375 1278.09 11.8125C1279.41 11.0625 1280.72 10.5 1282.03 10.125C1288.03 7.875 1292.25 7.59375 1294.69 9.28125C1297.31 10.9688 1298.81 14.3438 1299.19 19.4062C1299.38 22.7812 1299.75 27.6563 1300.31 34.0312C1301.06 40.4062 1301.72 47.5312 1302.28 55.4062C1302.84 63.2812 1303.31 71.4375 1303.69 79.875C1304.06 88.125 1304.25 95.8125 1304.25 102.938C1304.25 107.625 1304.34 113.156 1304.53 119.531C1304.72 125.906 1305 132.656 1305.38 139.781C1305.75 146.906 1306.22 154.219 1306.78 161.719C1307.34 169.031 1308 176.062 1308.75 182.812C1309.5 189.562 1310.25 195.75 1311 201.375C1311.94 207 1312.88 211.594 1313.81 215.156C1314.19 216.656 1314.56 218.062 1314.94 219.375C1315.5 220.688 1315.97 222 1316.34 223.312C1317.47 218.812 1318.69 213.469 1320 207.281C1321.5 201.094 1323 194.531 1324.5 187.594C1326.19 180.469 1327.78 173.25 1329.28 165.938C1330.78 158.438 1332.09 151.406 1333.22 144.844C1334.16 139.594 1335.19 132.844 1336.31 124.594C1337.44 116.344 1338.75 107.438 1340.25 97.875C1338.19 97.125 1336.22 96.375 1334.34 95.625C1332.66 94.875 1330.97 93.9375 1329.28 92.8125C1327.59 91.6875 1326.19 90.375 1325.06 88.875C1325.25 86.4375 1325.44 84.6562 1325.62 83.5312C1326 82.4062 1326.94 82.3125 1328.44 83.25C1329.56 83.8125 1331.25 84.4688 1333.5 85.2188C1335.94 85.9688 1338.75 86.5312 1341.94 86.9062C1342.88 81.6562 1343.91 76.4062 1345.03 71.1562C1346.34 65.9063 1347.66 60.8438 1348.97 55.9688C1351.03 47.9063 1353.38 40.6875 1356 34.3125C1358.62 27.75 1361.62 22.2188 1365 17.7188C1368.56 13.2188 1372.69 9.75 1377.38 7.3125C1382.06 4.875 1387.5 3.5625 1393.69 3.375C1399.5 3.375 1404.19 5.8125 1407.75 10.6875C1411.5 15.375 1413.09 23.625 1412.53 35.4375C1412.16 44.25 1410.28 52.2187 1406.91 59.3438C1403.72 66.2812 1399.78 72.4688 1395.09 77.9062C1390.41 83.1562 1385.25 87.5625 1379.62 91.125C1374 94.5 1368.66 96.9375 1363.59 98.4375C1361.91 107.25 1360.31 116.156 1358.81 125.156C1357.31 133.969 1355.81 142.594 1354.31 151.031C1353 159.281 1351.59 167.156 1350.09 174.656C1348.78 182.156 1347.47 188.812 1346.16 194.625C1344.84 200.25 1343.44 206.344 1341.94 212.906C1340.62 218.531 1339.03 225 1337.16 232.312C1335.28 239.625 1333.31 247.312 1331.25 255.375C1330.5 257.062 1329.56 258.469 1328.44 259.594C1327.31 260.906 1326.19 261.938 1325.06 262.688C1323.75 263.625 1322.44 264.375 1321.12 264.938C1317.38 266.438 1314.19 266.719 1311.56 265.781C1308.94 264.844 1306.59 262.312 1304.53 258.188C1302.47 253.875 1300.59 248.531 1298.91 242.156C1297.41 235.781 1295.81 228.844 1294.12 221.344C1292.44 213.281 1291.12 204.562 1290.19 195.188C1289.44 185.625 1288.78 175.969 1288.22 166.219C1287.84 156.281 1287.56 146.438 1287.38 136.688C1287.19 126.938 1286.81 117.75 1286.25 109.125C1285.31 97.875 1284.38 87.8438 1283.44 79.0312C1282.5 70.0312 1281.47 62.4375 1280.34 56.25C1279.59 60 1278.75 64.2188 1277.81 68.9062C1276.88 73.5938 1275.84 78.375 1274.72 83.25ZM1369.22 71.4375C1368.28 75 1367.53 78.375 1366.97 81.5625C1371.47 78.9375 1375.69 75.6562 1379.62 71.7188C1383.56 67.5938 1386.94 63.2812 1389.75 58.7812C1392.56 54.2812 1394.72 49.7812 1396.22 45.2812C1397.91 40.7812 1398.84 36.6563 1399.03 32.9062C1399.22 30.2812 1398.94 28.2188 1398.19 26.7188C1397.62 25.0312 1396.5 24.1875 1394.81 24.1875C1393.88 24.1875 1392.38 24.75 1390.31 25.875C1388.44 26.8125 1386.28 28.9688 1383.84 32.3438C1381.41 35.5313 1378.88 40.2188 1376.25 46.4062C1373.81 52.5938 1371.47 60.9375 1369.22 71.4375ZM1540.5 144.844C1536.94 141.094 1534.03 136.5 1531.78 131.062C1529.72 125.438 1528.12 119.906 1527 114.469C1525.69 108.281 1524.75 101.719 1524.19 94.7812C1523.25 81.2812 1524.75 69 1528.69 57.9375C1532.62 46.875 1537.97 37.4062 1544.72 29.5312C1551.47 21.6562 1558.97 15.5625 1567.22 11.25C1575.66 6.9375 1583.81 4.78125 1591.69 4.78125C1595.25 4.78125 1598.06 5.625 1600.12 7.3125C1602.38 9 1604.06 11.0625 1605.19 13.5C1606.31 15.9375 1606.97 18.4687 1607.16 21.0938C1607.53 23.7188 1607.72 25.875 1607.72 27.5625C1607.72 33.5625 1607.53 39.4688 1607.16 45.2812C1606.97 51.0937 1606.5 57.2812 1605.75 63.8438C1605.19 70.4063 1604.25 77.4375 1602.94 84.9375C1601.62 92.4375 1599.94 100.781 1597.88 109.969C1596.75 115.031 1595.16 121.5 1593.09 129.375C1591.03 137.25 1588.59 145.969 1585.78 155.531C1594.22 155.719 1600.97 156.094 1606.03 156.656C1611.28 157.031 1614.66 157.312 1616.16 157.5C1617.47 157.688 1618.41 158.344 1618.97 159.469C1619.72 160.594 1619.34 162.375 1617.84 164.812C1616.34 167.062 1614.19 168.375 1611.38 168.75C1608.75 169.125 1606.12 169.312 1603.5 169.312C1602 169.312 1599.19 169.312 1595.06 169.312C1591.12 169.312 1586.44 169.5 1581 169.875C1577.06 181.5 1572.56 193.219 1567.5 205.031C1562.62 216.656 1557.19 227.156 1551.19 236.531C1545.19 246.094 1538.62 253.781 1531.5 259.594C1524.38 265.594 1516.78 268.594 1508.72 268.594C1497.09 268.594 1487.25 266.344 1479.19 261.844C1471.31 257.531 1464.94 252.375 1460.06 246.375C1455 240.562 1451.34 234.656 1449.09 228.656C1446.84 222.844 1445.72 218.344 1445.72 215.156C1445.72 209.531 1447.22 203.812 1450.22 198C1453.22 192.188 1458 186.75 1464.56 181.688C1470.94 176.438 1479.28 171.844 1489.59 167.906C1499.91 163.969 1512.28 160.969 1526.72 158.906C1532.72 158.156 1538.44 157.594 1543.88 157.219C1549.31 156.656 1554.47 156.188 1559.34 155.812C1563.09 141.75 1566.84 127.406 1570.59 112.781C1574.53 98.1562 1577.91 84.6562 1580.72 72.2812C1581.84 67.2188 1582.97 61.7812 1584.09 55.9688C1585.22 49.9687 1586.06 44.3437 1586.62 39.0938C1587.38 33.8438 1587.75 29.4375 1587.75 25.875C1587.94 22.3125 1587.56 20.3438 1586.62 19.9688C1586.06 19.7813 1584.66 20.5312 1582.41 22.2188C1580.16 23.7188 1577.53 25.9688 1574.53 28.9688C1571.53 31.9687 1568.53 35.625 1565.53 39.9375C1562.72 44.0625 1560.38 48.5625 1558.5 53.4375C1555.12 63 1552.5 72.375 1550.62 81.5625C1549.12 89.4375 1548.19 97.7812 1547.81 106.594C1547.44 115.406 1548.84 123.375 1552.03 130.5C1551.66 133.125 1551.09 135.281 1550.34 136.969C1549.78 137.906 1549.31 138.75 1548.94 139.5C1548.38 140.062 1547.72 140.719 1546.97 141.469C1546.22 142.031 1545.28 142.688 1544.16 143.438C1543.22 144 1542 144.469 1540.5 144.844ZM1537.12 223.312C1539.19 219 1541.72 212.344 1544.72 203.344C1547.72 194.344 1550.91 183.938 1554.28 172.125C1545.09 173.25 1535.81 174.844 1526.44 176.906C1517.06 178.781 1508.53 181.406 1500.84 184.781C1493.34 187.969 1487.16 191.906 1482.28 196.594C1477.59 201.281 1475.25 206.812 1475.25 213.188C1475.25 219.938 1476.56 225.844 1479.19 230.906C1482 235.969 1485.28 240.188 1489.03 243.562C1492.97 246.938 1496.91 249.469 1500.84 251.156C1504.97 253.031 1508.44 253.969 1511.25 253.969C1514.06 253.969 1516.69 252.844 1519.12 250.594C1521.75 248.531 1524.09 245.906 1526.16 242.719C1528.41 239.719 1530.38 236.438 1532.06 232.875C1533.94 229.312 1535.62 226.125 1537.12 223.312ZM1656.94 120.375C1647.38 120.375 1639.59 119.344 1633.59 117.281C1627.78 115.219 1623.84 112.594 1621.78 109.406C1620.84 108.094 1620 106.125 1619.25 103.5C1618.5 100.875 1618.78 97.9688 1620.09 94.7812C1622.72 96.8438 1625.53 98.4375 1628.53 99.5625C1631.72 100.5 1634.62 101.156 1637.25 101.531C1640.44 102.094 1643.53 102.375 1646.53 102.375C1652.16 102.375 1657.59 101.906 1662.84 100.969C1668.28 100.031 1673.62 98.7188 1678.88 97.0312C1681.12 85.7812 1683.28 75.6562 1685.34 66.6562C1687.59 57.6562 1690.12 50.3438 1692.94 44.7188C1695.94 38.5312 1699.03 33 1702.22 28.125C1705.59 23.0625 1709.25 18.8438 1713.19 15.4688C1717.31 11.9063 1721.81 9.1875 1726.69 7.3125C1731.56 5.4375 1737.19 4.5 1743.56 4.5C1748.25 4.5 1751.91 5.4375 1754.53 7.3125C1757.34 9.1875 1759.41 11.5312 1760.72 14.3438C1762.22 17.1562 1763.06 20.25 1763.25 23.625C1763.62 26.8125 1763.81 29.8125 1763.81 32.625C1763.81 38.8125 1762.31 45.5625 1759.31 52.875C1756.31 60.1875 1752.09 67.4062 1746.66 74.5312C1741.22 81.6562 1734.66 88.4062 1726.97 94.7812C1719.47 101.156 1711.03 106.406 1701.66 110.531C1698.47 122.906 1695.28 135.188 1692.09 147.375C1689.09 159.375 1686.09 169.312 1683.09 177.188C1680.47 184.5 1677.09 192.656 1672.97 201.656C1669.03 210.656 1664.16 219.281 1658.34 227.531C1661.91 229.781 1665.47 232.125 1669.03 234.562C1672.78 237 1676.53 239.156 1680.28 241.031C1684.03 243.094 1687.78 244.781 1691.53 246.094C1695.47 247.406 1699.59 248.062 1703.91 248.062C1708.41 247.875 1712.81 247.219 1717.12 246.094C1720.88 245.156 1724.81 243.562 1728.94 241.312C1733.06 239.25 1736.91 236.25 1740.47 232.312C1741.78 234.562 1742.16 237.938 1741.59 242.438C1741.22 246.938 1739.81 251.438 1737.38 255.938C1734.94 260.438 1731.47 264.375 1726.97 267.75C1722.47 271.125 1716.84 272.812 1710.09 272.812C1702.97 272.812 1696.31 271.781 1690.12 269.719C1683.94 267.844 1678.12 265.5 1672.69 262.688C1667.25 259.875 1662.09 256.781 1657.22 253.406C1652.53 250.219 1648.12 247.219 1644 244.406C1638.38 249.844 1632.19 254.25 1625.44 257.625C1618.69 261 1611.19 262.688 1602.94 262.688C1596.38 262.688 1591.12 260.812 1587.19 257.062C1583.25 253.5 1581.47 248.625 1581.84 242.438C1582.03 240.188 1582.69 237.469 1583.81 234.281C1584.94 231.281 1587.09 228.375 1590.28 225.562C1593.28 222.75 1597.5 220.312 1602.94 218.25C1608.38 216.375 1615.41 215.438 1624.03 215.438C1627.22 215.438 1630.22 215.719 1633.03 216.281C1636.03 217.031 1638.94 217.875 1641.75 218.812C1643.81 215.062 1645.88 210.75 1647.94 205.875C1650 201 1652.25 195.469 1654.69 189.281C1659 177.469 1662.75 165.656 1665.94 153.844C1669.12 141.844 1671.84 130.219 1674.09 118.969C1671.47 119.531 1668.66 119.906 1665.66 120.094C1662.84 120.281 1659.94 120.375 1656.94 120.375ZM1610.25 247.5C1612.69 246.562 1615.5 245.625 1618.69 244.688C1621.88 243.75 1625.53 241.125 1629.66 236.812C1626.84 235.875 1624.69 235.406 1623.19 235.406C1616.44 235.406 1611.56 236.344 1608.56 238.219C1605.38 240.281 1603.78 242.25 1603.78 244.125C1603.78 245.438 1604.34 246.375 1605.47 246.938C1606.59 247.688 1608.19 247.875 1610.25 247.5ZM1716.56 51.75C1715.62 54.5625 1714.41 58.6875 1712.91 64.125C1711.41 69.5625 1709.81 75.8438 1708.12 82.9688C1718.25 76.4062 1726.31 68.9062 1732.31 60.4688C1738.5 52.0312 1741.59 43.5938 1741.59 35.1562C1741.59 30.0938 1740.09 27.5625 1737.09 27.5625C1734.47 27.5625 1731.09 29.625 1726.97 33.75C1722.84 37.6875 1719.38 43.6875 1716.56 51.75Z" fill="#bf8ab9"/>
</svg>
