<svg width="552" height="162" viewBox="0 0 552 162" fill="#fff" xmlns="http://www.w3.org/2000/svg">
<path d="M62.8906 65.4219C63.2656 64.8594 63.7344 64.5312 64.2969 64.4375C64.9531 64.25 65.4688 64.2969 65.8438 64.5781C66.2188 64.8594 66.4062 65.3281 66.4062 65.9844C66.5 66.6406 66.2656 67.5312 65.7031 68.6562C63.8281 72.2188 61.3438 76.0625 58.25 80.1875C55.25 84.3125 52.0625 88.2031 48.6875 91.8594C45.3125 95.4219 42.0312 98.375 38.8438 100.719C35.6562 103.062 32.9844 104.234 30.8281 104.234C27.7344 104.234 25.1562 103.625 23.0938 102.406C21.0312 101.188 19.3906 99.6875 18.1719 97.9062C17.0469 96.125 16.25 94.2031 15.7812 92.1406C15.3125 89.9844 15.1719 88.0156 15.3594 86.2344C15.4531 84.7344 15.7812 82.0625 16.3438 78.2188C16.9062 74.2812 17.6562 69.7812 18.5938 64.7188C19.5312 59.5625 20.5625 54.0781 21.6875 48.2656C22.9062 42.3594 24.1719 36.6875 25.4844 31.25C23.8906 31.4375 22.2969 31.625 20.7031 31.8125C19.1094 32 17.6562 32.0938 16.3438 32.0938C13.3438 32.0938 10.5312 31.7656 7.90625 31.1094C5.1875 30.3594 3.17188 29.6562 1.85938 29C1.10938 28.625 0.78125 28.1094 0.875 27.4531C0.96875 26.7031 1.25 26 1.71875 25.3438C2.1875 24.5937 2.79688 23.9844 3.54688 23.5156C4.20312 22.9531 4.8125 22.6719 5.375 22.6719C7.15625 22.8594 9.07812 23.0469 11.1406 23.2344C13.2031 23.3281 15.4531 23.3281 17.8906 23.2344C19.6719 23.1406 21.3594 23 22.9531 22.8125C24.6406 22.625 26.2812 22.3906 27.875 22.1094C29.0938 17.6094 30.2656 13.7188 31.3906 10.4375C32.6094 7.0625 33.6875 4.71875 34.625 3.40625C34.9062 2.9375 35.5156 2.5625 36.4531 2.28125C37.4844 1.90625 38.5625 1.67187 39.6875 1.57812C40.8125 1.39062 41.8906 1.39062 42.9219 1.57812C43.9531 1.67187 44.7031 2 45.1719 2.5625C45.6406 3.3125 45.8281 5.23438 45.7344 8.32812C45.6406 11.4219 45.125 15.3594 44.1875 20.1406C48.125 20.1406 51.5938 20.375 54.5938 20.8438C57.6875 21.2187 60.3125 21.6875 62.4688 22.25C64.625 22.7188 66.3594 23.2344 67.6719 23.7969C68.9844 24.2656 69.9688 24.5937 70.625 24.7812C71.2812 24.9688 71.6094 25.4375 71.6094 26.1875C71.7031 26.9375 71.5625 27.7344 71.1875 28.5781C70.9062 29.3281 70.3906 29.9844 69.6406 30.5469C68.8906 31.1094 68.0469 31.2969 67.1094 31.1094C66.1719 31.0156 65.0938 30.8281 63.875 30.5469C62.75 30.2656 61.3438 30.0312 59.6562 29.8438C58.0625 29.6562 56.1406 29.4688 53.8906 29.2812C51.6406 29.0938 49.0156 29 46.0156 29C45.4531 29 44.7969 29.0469 44.0469 29.1406C43.3906 29.1406 42.6875 29.1406 41.9375 29.1406C41.5625 30.6406 41.1875 32.1406 40.8125 33.6406C40.5312 35.0469 40.1094 36.5469 39.5469 38.1406C38.3281 41.8906 36.9219 45.9688 35.3281 50.375C33.9219 54.2188 32.2344 58.625 30.2656 63.5938C28.2969 68.5625 26.0938 73.8594 23.6562 79.4844C23.0938 83.5156 23.1406 86.6094 23.7969 88.7656C24.5469 90.8281 25.4375 92.3281 26.4688 93.2656C27.6875 94.2969 29.1875 94.8594 30.9688 94.9531C32.375 95.1406 34.0625 94.6719 36.0312 93.5469C38.0938 92.3281 40.2031 90.7344 42.3594 88.7656C44.5156 86.7969 46.6719 84.6406 48.8281 82.2969C51.0781 79.9531 53.1406 77.6562 55.0156 75.4062C56.8906 73.1562 58.5312 71.1406 59.9375 69.3594C61.3438 67.4844 62.3281 66.1719 62.8906 65.4219ZM126.594 73.0156C125.281 74.8906 123.594 77.2344 121.531 80.0469C119.469 82.7656 117.312 85.5312 115.062 88.3438C112.906 91.0625 110.75 93.5938 108.594 95.9375C106.531 98.1875 104.797 99.7812 103.391 100.719C102.453 101.281 101.375 101.75 100.156 102.125C98.9375 102.5 97.6719 102.734 96.3594 102.828C95.1406 102.922 93.9688 102.828 92.8438 102.547C91.7188 102.359 90.7344 101.984 89.8906 101.422C89.0469 100.766 88.3438 99.8281 87.7812 98.6094C87.3125 97.5781 86.8438 96.2188 86.375 94.5312C86 92.8438 85.8594 90.7344 85.9531 88.2031C83.7031 91.9531 81.2188 94.8594 78.5 96.9219C75.7812 98.8906 73.2031 100.344 70.7656 101.281C67.9531 102.312 65.1406 102.922 62.3281 103.109C61.0156 103.109 59.6094 102.641 58.1094 101.703C56.6094 100.859 55.3438 99.5 54.3125 97.625C53.2812 95.6562 52.625 93.1719 52.3438 90.1719C52.0625 87.0781 52.4375 83.4219 53.4688 79.2031C54.7812 73.4844 56.8438 68.2812 59.6562 63.5938C62.5625 58.9062 65.7031 54.9219 69.0781 51.6406C72.4531 48.2656 75.7812 45.7344 79.0625 44.0469C82.3438 42.3594 85.0625 41.6094 87.2188 41.7969C89.75 42.2656 91.8125 43.0156 93.4062 44.0469C94.7188 44.9844 95.5625 46.3906 95.9375 48.2656C96.4062 50.0469 95.6562 52.4375 93.6875 55.4375C95 55.1562 96.0781 54.9688 96.9219 54.875C97.8594 54.7812 98.5625 54.7344 99.0312 54.7344C99.5938 54.7344 99.9688 54.7812 100.156 54.875C100.25 55.0625 100.297 55.4844 100.297 56.1406C100.297 56.7031 100.156 57.7812 99.875 59.375C99.5938 60.9688 99.1719 63.125 98.6094 65.8438C98.0469 68.5625 97.2969 72.0781 96.3594 76.3906C96.1719 77.2344 95.9844 78.0312 95.7969 78.7812C95.7031 79.4375 95.5625 80.1406 95.375 80.8906C95.2812 81.5469 95.1406 82.3438 94.9531 83.2812C94.7656 84.2188 94.5312 85.3906 94.25 86.7969C94.1562 87.6406 94.1094 88.5781 94.1094 89.6094C94.2031 90.5469 94.3906 91.4375 94.6719 92.2812C94.9531 93.125 95.375 93.8281 95.9375 94.3906C96.5938 94.8594 97.4844 95.0938 98.6094 95.0938C99.5469 95.0938 100.766 94.5312 102.266 93.4062C103.766 92.1875 105.359 90.6875 107.047 88.9062C108.734 87.0312 110.469 85.0156 112.25 82.8594C114.125 80.6094 115.859 78.4531 117.453 76.3906C119.047 74.3281 120.453 72.5 121.672 70.9062C122.984 69.3125 123.922 68.1406 124.484 67.3906C125.234 66.5469 125.984 66.0781 126.734 65.9844C127.484 65.7969 128.047 65.9844 128.422 66.5469C128.797 67.1094 128.844 67.9531 128.562 69.0781C128.375 70.2031 127.719 71.5156 126.594 73.0156ZM85.3906 79.2031C85.8594 77.3281 86.4219 75.125 87.0781 72.5938C87.7344 70.0625 88.2969 67.625 88.7656 65.2812C89.2344 62.9375 89.5625 61.0156 89.75 59.5156C90.0312 57.9219 89.9844 57.1719 89.6094 57.2656C89.1406 57.3594 88.625 57.5 88.0625 57.6875C87.5938 57.875 86.9844 58.0156 86.2344 58.1094C85.4844 58.2031 84.7344 58.3438 83.9844 58.5312C84.7344 57.0312 85.1562 55.8125 85.25 54.875C85.4375 53.8438 85.4844 53.0469 85.3906 52.4844C85.2969 51.8281 85.1094 51.3125 84.8281 50.9375C83.7969 50.0938 81.9688 50.7969 79.3438 53.0469C76.8125 55.2031 73.8594 59.2344 70.4844 65.1406C69.0781 67.5781 67.9531 70.2031 67.1094 73.0156C66.2656 75.7344 65.6562 78.3125 65.2812 80.75C65 83.1875 64.9531 85.3438 65.1406 87.2188C65.3281 89 65.7031 90.1719 66.2656 90.7344C67.2969 91.7656 68.4688 92.2812 69.7812 92.2812C71.0938 92.1875 72.4062 91.8125 73.7188 91.1562C75.125 90.4062 76.4844 89.4688 77.7969 88.3438C79.2031 87.2188 80.4219 86.0469 81.4531 84.8281C82.5781 83.6094 83.4688 82.4844 84.125 81.4531C84.875 80.4219 85.2969 79.6719 85.3906 79.2031ZM189.312 73.0156C187.156 76.5781 184.672 80.2812 181.859 84.125C179.141 87.875 176.234 91.3438 173.141 94.5312C170.047 97.625 166.859 100.203 163.578 102.266C160.297 104.328 157.016 105.359 153.734 105.359C150.453 105.359 148.062 104.234 146.562 101.984C145.156 99.8281 144.5 97.3906 144.594 94.6719C144.594 93.4531 144.688 92.375 144.875 91.4375C145.156 90.5 145.438 89.6562 145.719 88.9062C146 88.1562 146.281 87.4062 146.562 86.6562C146.938 85.8125 147.266 84.875 147.547 83.8438C147.922 82.625 147.922 81.5469 147.547 80.6094C147.266 79.5781 146.891 78.6875 146.422 77.9375C145.578 78.875 144.594 79.7188 143.469 80.4688C142.438 81.125 141.125 81.4531 139.531 81.4531C138.406 81.4531 137.375 80.9375 136.438 79.9062C135.5 78.7812 135.031 77.4219 135.031 75.8281C135.031 74.5156 135.312 73.4375 135.875 72.5938C136.531 71.75 137.234 71.0938 137.984 70.625C138.828 70.1562 139.672 69.8281 140.516 69.6406C141.359 69.4531 142.062 69.3594 142.625 69.3594C142.906 69.3594 143.469 69.4062 144.312 69.5C145.25 69.5938 146.234 69.7344 147.266 69.9219C150.641 67.2031 153.031 64.7656 154.438 62.6094C155.938 60.3594 156.078 58.3438 154.859 56.5625C154.109 55.3438 153.172 54.7344 152.047 54.7344C150.922 54.6406 149.75 54.9219 148.531 55.5781C147.312 56.1406 146.094 56.8906 144.875 57.8281C143.75 58.7656 142.719 59.6562 141.781 60.5C139.906 62.375 137.797 64.625 135.453 67.25C133.203 69.7812 131.328 71.8906 129.828 73.5781C129.172 76.3906 128.516 79.3438 127.859 82.4375C127.297 85.1562 126.641 88.25 125.891 91.7188C125.234 95.0938 124.531 98.6094 123.781 102.266C123.219 102.547 122.609 102.734 121.953 102.828C121.391 103.016 120.875 103.156 120.406 103.25C119.844 103.344 119.281 103.391 118.719 103.391C117.969 103.391 117.266 103.344 116.609 103.25C115.953 103.25 115.438 103.016 115.062 102.547C114.594 102.172 114.359 101.516 114.359 100.578C114.266 99.6406 114.5 98.3281 115.062 96.6406C115.812 94.2031 116.75 90.9688 117.875 86.9375C119 82.8125 120.172 78.3125 121.391 73.4375C122.609 68.5625 123.828 63.5 125.047 58.25C126.359 52.9062 127.578 47.8438 128.703 43.0625C129.828 38.1875 130.766 33.8281 131.516 29.9844C132.359 26.0469 132.969 22.9531 133.344 20.7031C133.625 18.2656 133.906 15.9219 134.188 13.6719C134.375 11.7969 134.469 9.96875 134.469 8.1875C134.562 6.3125 134.469 4.90625 134.188 3.96875C134.656 3.5 135.312 3.07812 136.156 2.70312C137 2.32813 137.938 2.04688 138.969 1.85938C140 1.57812 141.219 1.34375 142.625 1.15625C144.219 0.96875 145.531 0.921875 146.562 1.01562C147.688 1.10937 148.484 1.57812 148.953 2.42188C149.516 3.35937 149.609 4.95312 149.234 7.20312C148.953 9.35938 148.297 12.4062 147.266 16.3438C145.953 21.4062 144.594 26.0469 143.188 30.2656C141.875 34.3906 140.562 38.2812 139.25 41.9375C138.031 45.5938 136.812 49.1562 135.594 52.625C134.469 56 133.438 59.4688 132.5 63.0312C134.375 60.3125 136.719 57.4531 139.531 54.4531C142.344 51.3594 145.531 48.8281 149.094 46.8594C152.844 44.8906 155.938 43.9062 158.375 43.9062C161.375 43.9062 163.531 44.9375 164.844 47C166.156 48.9688 166.766 51.3125 166.672 54.0312C166.578 56.1875 166.016 58.2031 164.984 60.0781C164.047 61.8594 162.875 63.5469 161.469 65.1406C160.062 66.6406 158.562 67.9531 156.969 69.0781C155.375 70.2031 154.016 71.1406 152.891 71.8906C154.203 72.6406 155.328 73.6719 156.266 74.9844C157.297 76.2031 157.766 77.75 157.672 79.625C157.578 82.1562 157.062 84.4062 156.125 86.375C155.281 88.25 154.859 89.9844 154.859 91.5781C154.953 92.7969 155.188 93.6875 155.562 94.25C156.031 94.8125 156.969 95.0938 158.375 95.0938C160.906 95.0938 163.531 94.0156 166.25 91.8594C169.062 89.7031 171.688 87.2188 174.125 84.4062C176.562 81.5938 178.812 78.8281 180.875 76.1094C182.938 73.2969 184.531 71.2344 185.656 69.9219C187.25 68.2344 188.562 67.8125 189.594 68.6562C190.719 69.4062 190.625 70.8594 189.312 73.0156ZM244.297 71.75C241.484 75.875 238.297 79.9062 234.734 83.8438C231.172 87.6875 227.375 91.1562 223.344 94.25C219.406 97.25 215.328 99.6875 211.109 101.562C206.984 103.438 202.953 104.375 199.016 104.375C196.953 104.375 194.703 103.859 192.266 102.828C189.922 101.891 187.766 100.391 185.797 98.3281C183.828 96.2656 182.234 93.5938 181.016 90.3125C179.891 87.0312 179.562 83.0469 180.031 78.3594C180.406 74.5156 181.578 70.4844 183.547 66.2656C185.609 61.9531 188.094 58.0156 191 54.4531C194 50.8906 197.328 47.9375 200.984 45.5938C204.734 43.25 208.484 42.0781 212.234 42.0781C215.797 42.0781 218.375 42.9688 219.969 44.75C221.562 46.5312 222.266 48.7344 222.078 51.3594C221.797 54.2656 220.953 56.9375 219.547 59.375C218.234 61.8125 216.641 64.0156 214.766 65.9844C212.891 67.9531 210.875 69.7344 208.719 71.3281C206.656 72.9219 204.688 74.375 202.812 75.6875C200.75 77.0938 198.781 78.4531 196.906 79.7656C195.031 80.9844 193.391 82.1094 191.984 83.1406C192.078 85.4844 192.5 87.4531 193.25 89.0469C194 90.6406 194.938 91.9531 196.062 92.9844C197.188 93.9219 198.453 94.625 199.859 95.0938C201.359 95.4688 202.859 95.6562 204.359 95.6562C207.547 95.6562 210.875 94.6719 214.344 92.7031C217.812 90.6406 221.188 88.2031 224.469 85.3906C227.844 82.4844 230.938 79.4844 233.75 76.3906C236.656 73.2969 239.047 70.625 240.922 68.375C241.578 67.625 242.234 67.2031 242.891 67.1094C243.641 66.9219 244.203 67.0156 244.578 67.3906C245.047 67.6719 245.281 68.2344 245.281 69.0781C245.281 69.8281 244.953 70.7188 244.297 71.75ZM208.297 50.0938C207.172 50.0938 205.812 50.6562 204.219 51.7812C202.719 52.9062 201.219 54.5469 199.719 56.7031C198.219 58.7656 196.812 61.3438 195.5 64.4375C194.188 67.4375 193.203 70.9062 192.547 74.8438C193.672 74 194.891 73.1562 196.203 72.3125C197.516 71.375 198.828 70.3906 200.141 69.3594C204.172 66.2656 206.984 63.5469 208.578 61.2031C210.172 58.8594 211.062 56.8438 211.25 55.1562C211.438 53.375 211.25 52.1094 210.688 51.3594C210.125 50.5156 209.328 50.0938 208.297 50.0938ZM306.312 73.0156C305 74.8906 303.312 77.2344 301.25 80.0469C299.188 82.7656 297.031 85.5312 294.781 88.3438C292.625 91.0625 290.469 93.5938 288.312 95.9375C286.25 98.1875 284.516 99.7812 283.109 100.719C282.172 101.281 281.094 101.75 279.875 102.125C278.656 102.5 277.391 102.734 276.078 102.828C274.859 102.922 273.688 102.828 272.562 102.547C271.438 102.359 270.453 101.984 269.609 101.422C268.766 100.766 268.062 99.8281 267.5 98.6094C267.031 97.5781 266.562 96.2188 266.094 94.5312C265.719 92.8438 265.578 90.7344 265.672 88.2031C263.422 91.9531 260.938 94.8594 258.219 96.9219C255.5 98.8906 252.922 100.344 250.484 101.281C247.672 102.312 244.859 102.922 242.047 103.109C240.734 103.109 239.328 102.641 237.828 101.703C236.328 100.859 235.062 99.5 234.031 97.625C233 95.6562 232.344 93.1719 232.062 90.1719C231.781 87.0781 232.156 83.4219 233.188 79.2031C234.5 73.4844 236.562 68.2812 239.375 63.5938C242.281 58.9062 245.422 54.9219 248.797 51.6406C252.172 48.2656 255.5 45.7344 258.781 44.0469C262.062 42.3594 264.781 41.6094 266.938 41.7969C269.469 42.2656 271.531 43.0156 273.125 44.0469C274.438 44.9844 275.281 46.3906 275.656 48.2656C276.125 50.0469 275.375 52.4375 273.406 55.4375C274.719 55.1562 275.797 54.9688 276.641 54.875C277.578 54.7812 278.281 54.7344 278.75 54.7344C279.312 54.7344 279.688 54.7812 279.875 54.875C279.969 55.0625 280.016 55.4844 280.016 56.1406C280.016 56.7031 279.875 57.7812 279.594 59.375C279.312 60.9688 278.891 63.125 278.328 65.8438C277.766 68.5625 277.016 72.0781 276.078 76.3906C275.891 77.2344 275.703 78.0312 275.516 78.7812C275.422 79.4375 275.281 80.1406 275.094 80.8906C275 81.5469 274.859 82.3438 274.672 83.2812C274.484 84.2188 274.25 85.3906 273.969 86.7969C273.875 87.6406 273.828 88.5781 273.828 89.6094C273.922 90.5469 274.109 91.4375 274.391 92.2812C274.672 93.125 275.094 93.8281 275.656 94.3906C276.312 94.8594 277.203 95.0938 278.328 95.0938C279.266 95.0938 280.484 94.5312 281.984 93.4062C283.484 92.1875 285.078 90.6875 286.766 88.9062C288.453 87.0312 290.188 85.0156 291.969 82.8594C293.844 80.6094 295.578 78.4531 297.172 76.3906C298.766 74.3281 300.172 72.5 301.391 70.9062C302.703 69.3125 303.641 68.1406 304.203 67.3906C304.953 66.5469 305.703 66.0781 306.453 65.9844C307.203 65.7969 307.766 65.9844 308.141 66.5469C308.516 67.1094 308.562 67.9531 308.281 69.0781C308.094 70.2031 307.438 71.5156 306.312 73.0156ZM265.109 79.2031C265.578 77.3281 266.141 75.125 266.797 72.5938C267.453 70.0625 268.016 67.625 268.484 65.2812C268.953 62.9375 269.281 61.0156 269.469 59.5156C269.75 57.9219 269.703 57.1719 269.328 57.2656C268.859 57.3594 268.344 57.5 267.781 57.6875C267.312 57.875 266.703 58.0156 265.953 58.1094C265.203 58.2031 264.453 58.3438 263.703 58.5312C264.453 57.0312 264.875 55.8125 264.969 54.875C265.156 53.8438 265.203 53.0469 265.109 52.4844C265.016 51.8281 264.828 51.3125 264.547 50.9375C263.516 50.0938 261.688 50.7969 259.062 53.0469C256.531 55.2031 253.578 59.2344 250.203 65.1406C248.797 67.5781 247.672 70.2031 246.828 73.0156C245.984 75.7344 245.375 78.3125 245 80.75C244.719 83.1875 244.672 85.3438 244.859 87.2188C245.047 89 245.422 90.1719 245.984 90.7344C247.016 91.7656 248.188 92.2812 249.5 92.2812C250.812 92.1875 252.125 91.8125 253.438 91.1562C254.844 90.4062 256.203 89.4688 257.516 88.3438C258.922 87.2188 260.141 86.0469 261.172 84.8281C262.297 83.6094 263.188 82.4844 263.844 81.4531C264.594 80.4219 265.016 79.6719 265.109 79.2031ZM370.156 76.6719C368.844 80.0469 367.344 83.3281 365.656 86.5156C363.969 89.7031 362.094 92.5625 360.031 95.0938C357.969 97.625 355.766 99.6406 353.422 101.141C351.078 102.641 348.547 103.391 345.828 103.391C341.422 103.391 338.094 101.938 335.844 99.0312C333.594 96.0312 332.047 92.375 331.203 88.0625C329.891 90.0312 328.484 92 326.984 93.9688C325.484 95.9375 323.891 97.6719 322.203 99.1719C320.516 100.672 318.781 101.891 317 102.828C315.219 103.766 313.438 104.234 311.656 104.234C309.219 104.234 307.156 103.719 305.469 102.688C303.781 101.656 302.375 100.25 301.25 98.4688C300.219 96.5938 299.469 94.4844 299 92.1406C298.531 89.7031 298.297 87.125 298.297 84.4062V82.7188C298.297 79.25 298.578 75.6875 299.141 72.0312C299.703 68.375 300.312 65 300.969 61.9062C301.719 58.8125 302.469 56.1406 303.219 53.8906C303.969 51.5469 304.531 50 304.906 49.25C305.562 48.3125 306.969 47.4219 309.125 46.5781C311.375 45.6406 313.578 45.2656 315.734 45.4531C316.766 45.5469 317.281 45.9688 317.281 46.7188C317.375 47.4688 317.281 48.4062 317 49.5312C316.625 51.125 315.969 53.5156 315.031 56.7031C314.094 59.8906 313.109 63.3594 312.078 67.1094C311.141 70.8594 310.297 74.5625 309.547 78.2188C308.797 81.875 308.422 84.9219 308.422 87.3594C308.422 90.3594 308.891 92.5156 309.828 93.8281C310.766 95.1406 312.219 95.7969 314.188 95.7969C316.531 95.7969 319.109 94.4844 321.922 91.8594C324.828 89.2344 327.641 84.7812 330.359 78.5C330.266 77.9375 330.219 77.375 330.219 76.8125C330.219 76.25 330.219 75.6406 330.219 74.9844C330.219 70.7656 330.359 66.7344 330.641 62.8906C331.016 59.0469 331.672 55.6719 332.609 52.7656C333.641 49.8594 335 47.5625 336.688 45.875C338.469 44.1875 340.766 43.3438 343.578 43.3438C344.703 43.3438 345.641 43.6719 346.391 44.3281C347.141 44.9844 347.516 45.9219 347.516 47.1406C347.516 50.1406 346.438 54.4062 344.281 59.9375C342.219 65.375 339.734 71.375 336.828 77.9375C336.547 78.3125 336.359 78.6875 336.266 79.0625C336.547 80.8438 336.875 82.7188 337.25 84.6875C337.719 86.6562 338.328 88.4844 339.078 90.1719C339.828 91.7656 340.719 93.125 341.75 94.25C342.781 95.2812 344 95.7969 345.406 95.7969C347.469 95.7969 349.344 94.8125 351.031 92.8438C352.812 90.875 354.359 88.4844 355.672 85.6719C357.078 82.8594 358.297 79.9062 359.328 76.8125C360.359 73.625 361.156 70.8125 361.719 68.375C361.438 67.3438 361.203 66.3594 361.016 65.4219C360.828 64.3906 360.734 63.2188 360.734 61.9062C360.734 59 361.156 56.5156 362 54.4531C362.844 52.3906 363.922 50.7031 365.234 49.3906C366.641 47.9844 368.094 46.9531 369.594 46.2969C371.188 45.6406 372.641 45.3125 373.953 45.3125C376.297 45.3125 377.469 46.3438 377.469 48.4062C377.469 49.9062 377.094 52.5312 376.344 56.2812C375.594 59.9375 374.516 64.1094 373.109 68.7969C374.797 69.5469 376.953 69.9219 379.578 69.9219C382.016 69.9219 384.266 69.6406 386.328 69.0781C388.391 68.4219 390.266 67.625 391.953 66.6875C393.641 65.75 395.188 64.7188 396.594 63.5938C398 62.4688 399.359 61.3906 400.672 60.3594C401.703 59.6094 402.547 59.5625 403.203 60.2188C403.859 60.875 403.766 61.9062 402.922 63.3125C402.172 64.5312 400.859 65.9375 398.984 67.5312C397.203 69.125 395 70.6719 392.375 72.1719C389.844 73.5781 386.984 74.7969 383.797 75.8281C380.703 76.7656 377.422 77.2344 373.953 77.2344C373.391 77.2344 372.781 77.1875 372.125 77.0938C371.469 77 370.812 76.8594 370.156 76.6719ZM462.125 73.0156C460.812 74.8906 459.125 77.2344 457.062 80.0469C455 82.7656 452.844 85.5312 450.594 88.3438C448.438 91.0625 446.281 93.5938 444.125 95.9375C442.062 98.1875 440.328 99.7812 438.922 100.719C437.984 101.281 436.906 101.75 435.688 102.125C434.469 102.5 433.203 102.734 431.891 102.828C430.672 102.922 429.5 102.828 428.375 102.547C427.25 102.359 426.266 101.984 425.422 101.422C424.578 100.766 423.875 99.8281 423.312 98.6094C422.844 97.5781 422.375 96.2188 421.906 94.5312C421.531 92.8438 421.391 90.7344 421.484 88.2031C419.234 91.9531 416.75 94.8594 414.031 96.9219C411.312 98.8906 408.734 100.344 406.297 101.281C403.484 102.312 400.672 102.922 397.859 103.109C396.547 103.109 395.141 102.641 393.641 101.703C392.141 100.859 390.875 99.5 389.844 97.625C388.812 95.6562 388.156 93.1719 387.875 90.1719C387.594 87.0781 387.969 83.4219 389 79.2031C390.312 73.4844 392.375 68.2812 395.188 63.5938C398.094 58.9062 401.234 54.9219 404.609 51.6406C407.984 48.2656 411.312 45.7344 414.594 44.0469C417.875 42.3594 420.594 41.6094 422.75 41.7969C425.281 42.2656 427.344 43.0156 428.938 44.0469C430.25 44.9844 431.094 46.3906 431.469 48.2656C431.938 50.0469 431.188 52.4375 429.219 55.4375C430.531 55.1562 431.609 54.9688 432.453 54.875C433.391 54.7812 434.094 54.7344 434.562 54.7344C435.125 54.7344 435.5 54.7812 435.688 54.875C435.781 55.0625 435.828 55.4844 435.828 56.1406C435.828 56.7031 435.688 57.7812 435.406 59.375C435.125 60.9688 434.703 63.125 434.141 65.8438C433.578 68.5625 432.828 72.0781 431.891 76.3906C431.703 77.2344 431.516 78.0312 431.328 78.7812C431.234 79.4375 431.094 80.1406 430.906 80.8906C430.812 81.5469 430.672 82.3438 430.484 83.2812C430.297 84.2188 430.062 85.3906 429.781 86.7969C429.688 87.6406 429.641 88.5781 429.641 89.6094C429.734 90.5469 429.922 91.4375 430.203 92.2812C430.484 93.125 430.906 93.8281 431.469 94.3906C432.125 94.8594 433.016 95.0938 434.141 95.0938C435.078 95.0938 436.297 94.5312 437.797 93.4062C439.297 92.1875 440.891 90.6875 442.578 88.9062C444.266 87.0312 446 85.0156 447.781 82.8594C449.656 80.6094 451.391 78.4531 452.984 76.3906C454.578 74.3281 455.984 72.5 457.203 70.9062C458.516 69.3125 459.453 68.1406 460.016 67.3906C460.766 66.5469 461.516 66.0781 462.266 65.9844C463.016 65.7969 463.578 65.9844 463.953 66.5469C464.328 67.1094 464.375 67.9531 464.094 69.0781C463.906 70.2031 463.25 71.5156 462.125 73.0156ZM420.922 79.2031C421.391 77.3281 421.953 75.125 422.609 72.5938C423.266 70.0625 423.828 67.625 424.297 65.2812C424.766 62.9375 425.094 61.0156 425.281 59.5156C425.562 57.9219 425.516 57.1719 425.141 57.2656C424.672 57.3594 424.156 57.5 423.594 57.6875C423.125 57.875 422.516 58.0156 421.766 58.1094C421.016 58.2031 420.266 58.3438 419.516 58.5312C420.266 57.0312 420.688 55.8125 420.781 54.875C420.969 53.8438 421.016 53.0469 420.922 52.4844C420.828 51.8281 420.641 51.3125 420.359 50.9375C419.328 50.0938 417.5 50.7969 414.875 53.0469C412.344 55.2031 409.391 59.2344 406.016 65.1406C404.609 67.5781 403.484 70.2031 402.641 73.0156C401.797 75.7344 401.188 78.3125 400.812 80.75C400.531 83.1875 400.484 85.3438 400.672 87.2188C400.859 89 401.234 90.1719 401.797 90.7344C402.828 91.7656 404 92.2812 405.312 92.2812C406.625 92.1875 407.938 91.8125 409.25 91.1562C410.656 90.4062 412.016 89.4688 413.328 88.3438C414.734 87.2188 415.953 86.0469 416.984 84.8281C418.109 83.6094 419 82.4844 419.656 81.4531C420.406 80.4219 420.828 79.6719 420.922 79.2031ZM489.688 49.25C490.906 48.3125 492.078 47.6094 493.203 47.1406C494.422 46.5781 495.5 46.2031 496.438 46.0156C497.469 45.7344 498.5 45.6406 499.531 45.7344C502.062 45.9219 503.609 46.7188 504.172 48.125C504.828 49.5312 504.922 51.7812 504.453 54.875C504.172 56.4688 503.609 58.4844 502.766 60.9219C501.922 63.3594 500.938 66.3594 499.812 69.9219C498.688 73.3906 497.469 77.375 496.156 81.875C494.938 86.375 493.766 91.4375 492.641 97.0625C491.516 101.656 490.297 106.953 488.984 112.953C487.859 118.203 486.5 124.531 484.906 131.938C483.406 139.344 481.766 147.828 479.984 157.391C479.516 159.734 478.484 161.094 476.891 161.469C475.391 161.844 473.797 161.656 472.109 160.906C471.453 160.531 470.844 160.109 470.281 159.641C469.812 159.172 469.297 158.609 468.734 157.953C468.172 157.391 467.703 156.594 467.328 155.562C469.484 147.688 471.359 140.516 472.953 134.047C474.641 127.578 476.141 121.953 477.453 117.172C478.859 111.641 480.172 106.672 481.391 102.266C481.859 100.297 482.281 98.375 482.656 96.5C483.125 94.5312 483.594 92.6094 484.062 90.7344C482.844 92.7031 481.531 94.5781 480.125 96.3594C478.719 98.1406 477.172 99.6875 475.484 101C473.797 102.312 471.969 103.297 470 103.953C468.125 104.703 466.156 104.938 464.094 104.656C459.031 104 455.422 102.125 453.266 99.0312C451.203 95.9375 450.312 91.9062 450.594 86.9375C450.688 84.9688 450.969 82.8125 451.438 80.4688C451.906 78.125 452.422 75.875 452.984 73.7188C453.547 71.5625 454.062 69.6406 454.531 67.9531C455.094 66.1719 455.516 64.9062 455.797 64.1562C456.922 60.5938 457.719 57.5469 458.188 55.0156C458.75 52.4844 458.375 50.375 457.062 48.6875C458.375 47.8438 459.594 47.2812 460.719 47C461.938 46.625 463.016 46.3438 463.953 46.1562C464.984 46.0625 466.016 46.0625 467.047 46.1562C469.578 46.5312 471.031 47.4688 471.406 48.9688C471.875 50.4688 471.734 52.7188 470.984 55.7188C470.609 57.3125 470 59.375 469.156 61.9062C468.312 64.3438 467.422 66.875 466.484 69.5C465.547 72.125 464.703 74.5625 463.953 76.8125C463.203 78.9688 462.781 80.5156 462.688 81.4531C461.844 85.6719 461.797 88.9531 462.547 91.2969C463.297 93.5469 464.938 94.6719 467.469 94.6719C468.688 94.6719 470.047 94.1562 471.547 93.125C473.047 92 474.547 90.5469 476.047 88.7656C477.641 86.9844 479.188 84.9688 480.688 82.7188C482.188 80.375 483.547 78.0312 484.766 75.6875C486.078 73.3438 487.203 71.0469 488.141 68.7969C489.172 66.5469 489.922 64.5312 490.391 62.75C491.047 59.2812 491.469 56.5625 491.656 54.5938C491.844 52.625 491.188 50.8438 489.688 49.25ZM531.031 96.2188C531.594 96.5938 532.297 96.7812 533.141 96.7812C534.078 96.7812 534.969 96.5938 535.812 96.2188C536.75 95.8438 537.594 95.3281 538.344 94.6719C539.188 94.0156 539.797 93.1719 540.172 92.1406C540.547 91.1094 540.547 89.6562 540.172 87.7812C539.797 85.8125 539.188 83.75 538.344 81.5938C537.594 79.3438 536.75 77.0938 535.812 74.8438C534.875 72.5938 534.078 70.5312 533.422 68.6562C532.859 67.25 532.391 65.9375 532.016 64.7188C531.641 63.6875 531.266 62.7031 530.891 61.7656C530.609 60.7344 530.375 60.0312 530.188 59.6562C529.719 60.4062 528.875 61.625 527.656 63.3125C526.531 65 525.266 66.7812 523.859 68.6562C522.547 70.4375 521.281 72.125 520.062 73.7188C518.844 75.2188 518 76.25 517.531 76.8125C516.781 77.6562 516.031 78.1719 515.281 78.3594C514.625 78.4531 514.062 78.3125 513.594 77.9375C513.125 77.4688 512.844 76.8594 512.75 76.1094C512.75 75.2656 513.125 74.2812 513.875 73.1562C514.438 72.4062 515.281 71.2344 516.406 69.6406C517.531 67.9531 518.656 66.2656 519.781 64.5781C520.906 62.7969 521.938 61.25 522.875 59.9375C523.812 58.5312 524.328 57.6875 524.422 57.4062C524.609 56.6562 524.328 55.6719 523.578 54.4531C522.922 53.2344 522.828 51.8281 523.297 50.2344C523.672 48.9219 524.516 47.4219 525.828 45.7344C527.141 43.9531 528.688 42.3594 530.469 40.9531C532.25 39.5469 534.078 38.5156 535.953 37.8594C537.828 37.1094 539.516 37.1094 541.016 37.8594C542.234 38.6094 543.219 39.4531 543.969 40.3906C544.719 41.2344 545 42.125 544.812 43.0625C544.625 43.5312 544.344 44.1406 543.969 44.8906C543.594 45.6406 543.031 46.5781 542.281 47.7031C541.531 48.7344 540.453 50.0938 539.047 51.7812C539.328 53.9375 539.703 55.9062 540.172 57.6875C540.734 59.4688 541.25 61.0156 541.719 62.3281C542.281 63.9219 542.891 65.375 543.547 66.6875C544.391 68.375 545.281 70.1094 546.219 71.8906C547.156 73.6719 548 75.4531 548.75 77.2344C549.5 78.9219 550.109 80.5156 550.578 82.0156C551.047 83.5156 551.188 84.7812 551 85.8125C550.719 87.4062 549.875 89.3281 548.469 91.5781C547.156 93.8281 545.469 96.0312 543.406 98.1875C541.438 100.25 539.141 102.031 536.516 103.531C533.984 105.031 531.312 105.781 528.5 105.781C526.531 105.781 524.609 105.172 522.734 103.953C520.953 102.734 519.406 101.328 518.094 99.7344C516.875 98.0469 515.938 96.4062 515.281 94.8125C514.719 93.2188 514.672 92 515.141 91.1562C515.703 90.0312 516.219 89.1406 516.688 88.4844C517.156 87.8281 517.859 87.0781 518.797 86.2344C519.172 85.9531 519.641 85.625 520.203 85.25C520.672 84.9688 521.328 84.6875 522.172 84.4062C523.016 84.125 524 83.7969 525.125 83.4219C526.062 86.3281 526.906 88.625 527.656 90.3125C528.406 91.9062 529.016 93.1719 529.484 94.1094C530.047 95.1406 530.562 95.8438 531.031 96.2188Z" />
</svg>
