<svg width="399" height="141" viewBox="0 0 399 141" fill="#fff" xmlns="http://www.w3.org/2000/svg">
<path d="M38.2031 59.1875C33.4219 59.1875 29.5312 58.6719 26.5312 57.6406C23.625 56.6094 21.6562 55.2969 20.625 53.7031C20.1562 53.0469 19.7344 52.0625 19.3594 50.75C18.9844 49.4375 19.125 47.9844 19.7812 46.3906C21.0938 47.4219 22.5 48.2188 24 48.7812C25.5938 49.25 27.0469 49.5781 28.3594 49.7656C29.9531 50.0469 31.5 50.1875 33 50.1875C35.8125 50.1875 38.5312 49.9531 41.1562 49.4844C43.875 49.0156 46.5469 48.3594 49.1719 47.5156C50.2969 41.8906 51.375 36.8281 52.4062 32.3281C53.5312 27.8281 54.7969 24.1719 56.2031 21.3594C57.7031 18.2656 59.25 15.5 60.8438 13.0625C62.5312 10.5312 64.3594 8.42188 66.3281 6.73438C68.3906 4.95313 70.6406 3.59375 73.0781 2.65625C75.5156 1.71875 78.3281 1.25 81.5156 1.25C83.8594 1.25 85.6875 1.71875 87 2.65625C88.4062 3.59375 89.4375 4.76562 90.0938 6.17188C90.8438 7.57812 91.2656 9.125 91.3594 10.8125C91.5469 12.4063 91.6406 13.9062 91.6406 15.3125C91.6406 18.4062 90.8906 21.7812 89.3906 25.4375C87.8906 29.0938 85.7812 32.7031 83.0625 36.2656C80.3438 39.8281 77.0625 43.2031 73.2188 46.3906C69.4688 49.5781 65.25 52.2031 60.5625 54.2656C58.9688 60.4531 57.375 66.5938 55.7812 72.6875C54.2812 78.6875 52.7812 83.6562 51.2812 87.5938C49.9688 91.25 48.2812 95.3281 46.2188 99.8281C44.25 104.328 41.8125 108.641 38.9062 112.766C40.6875 113.891 42.4688 115.062 44.25 116.281C46.125 117.5 48 118.578 49.875 119.516C51.75 120.547 53.625 121.391 55.5 122.047C57.4688 122.703 59.5312 123.031 61.6875 123.031C63.9375 122.938 66.1406 122.609 68.2969 122.047C70.1719 121.578 72.1406 120.781 74.2031 119.656C76.2656 118.625 78.1875 117.125 79.9688 115.156C80.625 116.281 80.8125 117.969 80.5312 120.219C80.3438 122.469 79.6406 124.719 78.4219 126.969C77.2031 129.219 75.4688 131.188 73.2188 132.875C70.9688 134.562 68.1562 135.406 64.7812 135.406C61.2188 135.406 57.8906 134.891 54.7969 133.859C51.7031 132.922 48.7969 131.75 46.0781 130.344C43.3594 128.938 40.7812 127.391 38.3438 125.703C36 124.109 33.7969 122.609 31.7344 121.203C28.9219 123.922 25.8281 126.125 22.4531 127.812C19.0781 129.5 15.3281 130.344 11.2031 130.344C7.92188 130.344 5.29688 129.406 3.32812 127.531C1.35938 125.75 0.46875 123.312 0.65625 120.219C0.75 119.094 1.07812 117.734 1.64062 116.141C2.20312 114.641 3.28125 113.188 4.875 111.781C6.375 110.375 8.48438 109.156 11.2031 108.125C13.9219 107.188 17.4375 106.719 21.75 106.719C23.3438 106.719 24.8438 106.859 26.25 107.141C27.75 107.516 29.2031 107.938 30.6094 108.406C31.6406 106.531 32.6719 104.375 33.7031 101.938C34.7344 99.5 35.8594 96.7344 37.0781 93.6406C39.2344 87.7344 41.1094 81.8281 42.7031 75.9219C44.2969 69.9219 45.6562 64.1094 46.7812 58.4844C45.4688 58.7656 44.0625 58.9531 42.5625 59.0469C41.1562 59.1406 39.7031 59.1875 38.2031 59.1875ZM14.8594 122.75C16.0781 122.281 17.4844 121.812 19.0781 121.344C20.6719 120.875 22.5 119.562 24.5625 117.406C23.1562 116.938 22.0781 116.703 21.3281 116.703C17.9531 116.703 15.5156 117.172 14.0156 118.109C12.4219 119.141 11.625 120.125 11.625 121.062C11.625 121.719 11.9062 122.188 12.4688 122.469C13.0312 122.844 13.8281 122.938 14.8594 122.75ZM68.0156 24.875C67.5469 26.2812 66.9375 28.3437 66.1875 31.0625C65.4375 33.7813 64.6406 36.9219 63.7969 40.4844C68.8594 37.2031 72.8906 33.4531 75.8906 29.2344C78.9844 25.0156 80.5312 20.7969 80.5312 16.5781C80.5312 14.0469 79.7812 12.7812 78.2812 12.7812C76.9688 12.7812 75.2812 13.8125 73.2188 15.875C71.1562 17.8438 69.4219 20.8438 68.0156 24.875ZM87.2812 108.266C87.375 102.172 88.2188 94.4844 89.8125 85.2031C91.125 77.2344 93.2344 67.0625 96.1406 54.6875C99.0469 42.3125 103.219 27.4062 108.656 9.96875C109.125 9.03125 109.828 8.23437 110.766 7.57812C111.797 6.92188 112.828 6.35938 113.859 5.89062C114.984 5.42187 116.25 5.04688 117.656 4.76562C118.969 4.48438 120.234 4.25 121.453 4.0625C122.484 3.875 123.562 3.78125 124.688 3.78125C125.812 3.78125 126.75 3.875 127.5 4.0625C124.219 12.3125 121.406 19.8125 119.062 26.5625C116.719 33.2188 114.797 38.9844 113.297 43.8594C111.516 49.5781 110.062 54.6406 108.938 59.0469C107.344 63.7344 105.984 68.4219 104.859 73.1094C103.734 77.7969 102.797 82.25 102.047 86.4688C101.391 90.5938 100.875 94.2969 100.5 97.5781C100.219 100.859 100.078 103.438 100.078 105.312C100.172 110.938 101.109 115.344 102.891 118.531C104.672 121.812 107.578 123.453 111.609 123.453C114.984 123.453 118.125 121.859 121.031 118.672C124.031 115.484 126.75 111.594 129.188 107C131.719 102.312 133.875 97.2969 135.656 91.9531C137.438 86.6094 138.797 81.8281 139.734 77.6094C139.922 76.8594 140.109 75.8281 140.297 74.5156C141.516 68.7031 142.969 62.2344 144.656 55.1094C146.062 49.0156 147.797 41.8438 149.859 33.5938C152.016 25.3438 154.453 16.3438 157.172 6.59375C157.922 5.84375 158.766 5.23438 159.703 4.76562C160.641 4.29687 161.484 3.92188 162.234 3.64062C163.172 3.26563 164.109 3.03125 165.047 2.9375C165.984 2.75 166.969 2.65625 168 2.65625C168.844 2.65625 169.828 2.75 170.953 2.9375C172.078 3.03125 173.203 3.26563 174.328 3.64062C172.453 8.70312 170.625 14 168.844 19.5312C167.062 24.9687 165.469 30.0312 164.062 34.7188C162.375 40.1562 160.781 45.5469 159.281 50.8906C157.125 57.6406 155.391 63.7344 154.078 69.1719C152.766 74.5156 151.688 79.4844 150.844 84.0781C150.094 88.5781 149.484 92.7969 149.016 96.7344C148.641 100.578 148.266 104.375 147.891 108.125C147.609 111.125 147.562 113.938 147.75 116.562C147.938 118.906 148.266 121.25 148.734 123.594C149.203 125.938 150.047 127.906 151.266 129.5C150.797 130.156 150.141 130.625 149.297 130.906C148.453 131.188 147.562 131.422 146.625 131.609C145.594 131.797 144.469 131.891 143.25 131.891C140.812 131.891 138.984 130.344 137.766 127.25C136.641 124.25 136.031 119.422 135.938 112.766C135.188 114.266 134.016 116.141 132.422 118.391C130.828 120.734 128.812 122.984 126.375 125.141C124.031 127.391 121.266 129.312 118.078 130.906C114.891 132.5 111.328 133.297 107.391 133.297C103.453 133.297 100.172 132.594 97.5469 131.188C95.0156 129.875 92.9531 128.047 91.3594 125.703C89.8594 123.453 88.7812 120.781 88.125 117.688C87.5625 114.688 87.2812 111.547 87.2812 108.266ZM198.797 133.156C194.109 133.156 189.844 132.031 186 129.781C182.25 127.531 179.016 124.438 176.297 120.5C173.672 116.562 171.656 111.969 170.25 106.719C168.938 101.375 168.375 95.7031 168.562 89.7031C168.75 84.0781 169.453 77.9844 170.672 71.4219C171.984 64.8594 173.812 58.2969 176.156 51.7344C178.5 45.0781 181.312 38.7031 184.594 32.6094C187.969 26.4219 191.812 20.9844 196.125 16.2969C200.438 11.6094 205.219 7.85938 210.469 5.04688C215.719 2.14063 221.484 0.6875 227.766 0.6875C231.609 0.6875 234.844 1.48437 237.469 3.07812C240.188 4.57812 242.344 6.59375 243.938 9.125C245.625 11.6562 246.797 14.5156 247.453 17.7031C248.109 20.8906 248.391 24.125 248.297 27.4062C248.109 30.5 247.641 33.5 246.891 36.4062C246.234 39.3125 245.25 41.9375 243.938 44.2812C242.719 46.5312 241.172 48.3594 239.297 49.7656C237.516 51.0781 235.453 51.7344 233.109 51.7344C231.984 51.6406 230.906 51.2656 229.875 50.6094C228.938 50.0469 227.953 49.2031 226.922 48.0781C225.984 46.9531 225.094 45.3125 224.25 43.1562C226.781 42.125 228.75 40.3438 230.156 37.8125C231.656 35.1875 232.781 32.4688 233.531 29.6562C234.375 26.4688 234.938 22.9062 235.219 18.9688C235.406 15.125 234.609 12.3125 232.828 10.5312C231.047 8.75 229.031 7.85938 226.781 7.85938C222.375 7.85938 217.734 10.1563 212.859 14.75C207.984 19.3437 203.438 25.5781 199.219 33.4531C195.094 41.2344 191.578 50.3281 188.672 60.7344C185.859 71.1406 184.219 82.1562 183.75 93.7812C183.562 99.0312 183.891 103.484 184.734 107.141C185.672 110.797 186.938 113.797 188.531 116.141C190.219 118.484 192.094 120.172 194.156 121.203C196.219 122.234 198.281 122.75 200.344 122.75C203.625 122.75 206.719 122.047 209.625 120.641C212.531 119.234 215.156 117.5 217.5 115.438C219.938 113.375 222 111.219 223.688 108.969C225.469 106.812 226.828 104.891 227.766 103.203C228.422 101.984 229.125 101.234 229.875 100.953C230.625 100.672 231.281 100.766 231.844 101.234C232.406 101.609 232.781 102.266 232.969 103.203C233.156 104.047 232.969 105.078 232.406 106.297C230.812 109.484 228.844 112.672 226.5 115.859C224.25 119.047 221.672 121.906 218.766 124.438C215.953 127.062 212.859 129.172 209.484 130.766C206.109 132.359 202.547 133.156 198.797 133.156ZM308.484 1.10938C311.766 1.10938 314.438 2.04687 316.5 3.92188C318.656 5.70312 319.594 8.98438 319.312 13.7656C319.219 15.3594 318.844 18.3594 318.188 22.7656C317.531 27.0781 316.734 32.1875 315.797 38.0938C314.859 44 313.781 50.375 312.562 57.2188C311.438 63.9688 310.359 70.5781 309.328 77.0469H312.281C313.219 77.0469 314.25 77 315.375 76.9062C316.5 76.8125 317.672 76.6719 318.891 76.4844C318.422 77.6094 317.906 78.6875 317.344 79.7188C316.781 80.6562 316.219 81.5 315.656 82.25C315 83.0938 314.344 83.8438 313.688 84.5C312.844 85.5312 311.859 86.4688 310.734 87.3125C309.609 88.0625 308.531 88.6719 307.5 89.1406C306.844 93.7344 306.281 97.8594 305.812 101.516C305.438 105.078 305.203 108.031 305.109 110.375C304.922 113.938 305.016 117.266 305.391 120.359C305.672 123.078 306.234 125.844 307.078 128.656C307.922 131.469 309.281 133.719 311.156 135.406L294.844 140.75C293.719 139.156 292.875 137 292.312 134.281C291.844 131.656 291.516 129.031 291.328 126.406C291.047 123.312 291 120.125 291.188 116.844C291.375 113.562 291.891 109.297 292.734 104.047C293.578 98.7031 294.516 92.8906 295.547 86.6094C293.672 86.0469 291.609 85.5781 289.359 85.2031C287.203 84.8281 284.766 84.6406 282.047 84.6406C279.609 84.6406 277.031 84.7344 274.312 84.9219C271.688 85.1094 269.062 85.3438 266.438 85.625C265.312 89.75 264.188 94.1094 263.062 98.7031C261.844 103.672 260.719 107.891 259.688 111.359C258.75 114.922 257.812 117.875 256.875 120.219C256.031 122.562 255.141 124.438 254.203 125.844C253.359 127.25 252.422 128.281 251.391 128.938C250.266 129.5 248.859 130.016 247.172 130.484C245.578 130.953 243.562 131.422 241.125 131.891C238.688 132.359 235.547 132.734 231.703 133.016C233.109 131.328 234.328 129.781 235.359 128.375C236.391 126.969 237.422 125.234 238.453 123.172C239.484 121.109 240.656 118.438 241.969 115.156C243.188 111.969 244.781 107.75 246.75 102.5C247.594 100.344 248.438 98 249.281 95.4688C250.219 92.8438 251.203 90.1719 252.234 87.4531C248.859 87.9219 246 88.3438 243.656 88.7188C241.312 89.0938 239.906 89.375 239.438 89.5625C238.688 89.6562 238.078 89.6562 237.609 89.5625C236.391 89.375 235.734 88.7656 235.641 87.7344C235.734 86.4219 236.203 85.5312 237.047 85.0625C237.797 84.5938 238.969 84.0312 240.562 83.375C241.312 83 243.047 82.3438 245.766 81.4062C248.391 80.375 251.625 79.2969 255.469 78.1719C256.875 74.2344 258.234 70.3438 259.547 66.5C260.953 62.5625 262.312 58.8125 263.625 55.25C264.938 51.6875 266.203 48.3594 267.422 45.2656C268.641 42.0781 269.766 39.3594 270.797 37.1094C272.391 33.6406 274.406 29.8438 276.844 25.7188C279.375 21.5 282.234 17.5625 285.422 13.9062C288.703 10.25 292.266 7.20313 296.109 4.76562C300.047 2.32812 304.172 1.10938 308.484 1.10938ZM306.938 30.3594C307.969 26.1406 308.672 22.6719 309.047 19.9531C309.422 17.2344 309.562 15.125 309.469 13.625C309.375 12.0312 309.047 10.9531 308.484 10.3906C308.016 9.73438 307.406 9.40625 306.656 9.40625C305.438 9.40625 303.938 9.875 302.156 10.8125C300.375 11.75 298.5 13.1094 296.531 14.8906C294.562 16.5781 292.594 18.7344 290.625 21.3594C288.75 23.8906 287.062 26.7969 285.562 30.0781C283.406 34.9531 280.969 40.9531 278.25 48.0781C275.531 55.1094 272.578 64.1094 269.391 75.0781C271.266 74.7969 273.094 74.5625 274.875 74.375C276.75 74.1875 278.578 74.0938 280.359 74.0938C283.547 74.0938 286.594 74.2344 289.5 74.5156C292.406 74.7031 295.078 74.9375 297.516 75.2188C298.359 70.7188 299.203 66.3125 300.047 62C300.984 57.5938 301.875 53.4219 302.719 49.4844C303.562 45.5469 304.312 41.9375 304.969 38.6562C305.719 35.375 306.375 32.6094 306.938 30.3594ZM378.797 42.4531C378.703 42.1719 378.984 41.4688 379.641 40.3438C380.297 39.125 381 37.6719 381.75 35.9844C382.594 34.2031 383.391 32.2344 384.141 30.0781C384.984 27.8281 385.547 25.5312 385.828 23.1875C386.203 20.8438 386.203 18.5 385.828 16.1562C385.453 13.8125 384.469 11.5625 382.875 9.40625C381.938 8.28125 380.531 7.67187 378.656 7.57812C376.875 7.39062 374.812 7.67187 372.469 8.42188C370.219 9.07812 367.828 10.1563 365.297 11.6562C362.859 13.0625 360.609 14.75 358.547 16.7188C356.484 18.5938 354.703 20.7031 353.203 23.0469C351.797 25.3906 351 27.7812 350.812 30.2188C350.625 32.1875 350.672 34.0156 350.953 35.7031C351.328 37.3906 351.797 38.9375 352.359 40.3438C352.922 41.75 353.531 43.0625 354.188 44.2812C354.844 45.5 355.453 46.5781 356.016 47.5156C356.766 48.8281 357.938 50.2812 359.531 51.875C361.125 53.4688 362.859 55.2969 364.734 57.3594C366.609 59.3281 368.484 61.5781 370.359 64.1094C372.234 66.6406 373.875 69.5 375.281 72.6875C376.688 75.875 377.672 79.4375 378.234 83.375C378.797 87.3125 378.75 91.6719 378.094 96.4531C377.062 103.391 375.422 109.156 373.172 113.75C370.922 118.438 368.438 122.188 365.719 125C363.094 127.812 360.422 129.828 357.703 131.047C354.984 132.359 352.734 133.203 350.953 133.578C349.547 133.859 347.859 134.094 345.891 134.281C344.016 134.562 342 134.516 339.844 134.141C337.781 133.859 335.672 133.203 333.516 132.172C331.359 131.234 329.438 129.734 327.75 127.672C325.781 125.328 324.234 122.797 323.109 120.078C322.078 117.734 321.328 115.016 320.859 111.922C320.297 108.922 320.531 105.781 321.562 102.5C322.312 101.656 323.109 100.906 323.953 100.25C324.797 99.5938 325.641 99.0312 326.484 98.5625C327.422 98 328.406 97.4844 329.438 97.0156C330.656 96.6406 331.875 96.3125 333.094 96.0312C334.125 95.8438 335.203 95.75 336.328 95.75C337.547 95.6562 338.672 95.7969 339.703 96.1719C338.297 97.7656 337.312 99.2656 336.75 100.672C336.375 101.422 336.094 102.078 335.906 102.641C335.531 104.422 335.391 106.531 335.484 108.969C335.672 111.5 336.188 113.891 337.031 116.141C337.969 118.484 339.281 120.453 340.969 122.047C342.656 123.734 344.906 124.625 347.719 124.719C354.562 124.906 360.375 119.562 365.156 108.688C366.75 105.312 367.547 101.891 367.547 98.4219C367.641 94.9531 367.219 91.625 366.281 88.4375C365.438 85.25 364.266 82.2969 362.766 79.5781C361.359 76.7656 359.906 74.375 358.406 72.4062C356.906 70.4375 355.078 68.3281 352.922 66.0781C350.859 63.7344 348.797 61.2031 346.734 58.4844C344.672 55.7656 342.797 52.8125 341.109 49.625C339.516 46.4375 338.438 42.9688 337.875 39.2188C337.125 33.9687 337.594 29.1875 339.281 24.875C341.062 20.4687 343.406 16.625 346.312 13.3438C349.312 10.0625 352.547 7.39062 356.016 5.32812C359.578 3.26563 362.719 1.95312 365.438 1.39062C380.531 -1.60938 390.422 0.921875 395.109 8.98438C397.078 12.0781 398.156 15.3594 398.344 18.8281C398.531 22.2969 398.297 25.5312 397.641 28.5312C397.078 31.4375 396.328 33.9219 395.391 35.9844C394.547 37.9531 393.984 39.0312 393.703 39.2188C393.141 39.7812 392.25 40.3906 391.031 41.0469C389.812 41.7031 387.844 42.3125 385.125 42.875C384.375 43.0625 383.625 43.1562 382.875 43.1562C382.219 43.1562 381.516 43.1094 380.766 43.0156C380.016 42.9219 379.359 42.7344 378.797 42.4531Z" />
</svg>
